<svg id="Layer_1" data-name="Layer 1" xmlns="http://www.w3.org/2000/svg" viewBox="0 0 512 512"><defs><style>.cls-1{fill:#707070;}</style></defs><title>shop-handdrawn</title><path class="cls-1" d="M495.66,191.79l-.68,3.75a39.1,39.1,0,0,1-2.17,6.61c-1.7,7.88-6.83,17.21-13.46,22.72a48.39,48.39,0,0,1-7.58,5.46c0-1,0-2,0-3a41.47,41.47,0,0,0,13-13.4,38.91,38.91,0,0,0,4.63-11.1c.86-3.39.8-5.67.4-4.72-.59,1.09.38-1.89.28-11.22,0-2.28,0-4.77,0-7.17V125.39c.06-2.68.12-5.32.18-8l.09,1.14c-.06-15.92-.13-31.88-.19-48.16h-1.54a38.63,38.63,0,0,1,.31-5.36c.05-.4.12-.81.18-1.21h-.56L488.74,50c0-2.21,0-4.73,0-7.36a40,40,0,0,0-9.7-25.84A39.13,39.13,0,0,0,456.85,3.76,40.35,40.35,0,0,0,450,3L444.7,3l-10.45,0-42.64,0L335,3.07c2.16-.69,23.44-1.5-29.21-1.63l5.09-.77L260.33.27C243.23,0,225.72-.06,209.23.09c-8.3.08-11.08.43-16.35.66l1.56.18L148.12.59C135.26.33,118.39.16,100.7.1H73.94l-6.6,0H65.67L63.3.27a34.57,34.57,0,0,0-4.68.55A41.66,41.66,0,0,0,41.83,7.74c-6.32,4.21-13.63,12.87-16.32,22a44.88,44.88,0,0,0-1.85,8.88L23.45,43V58.6q0,1.27,0,2.53h-.17c.08.44.1.88.17,1.32q0,1.07,0,2.15l1.3,0c1.67,0,3.34.06,5,.06,4.67,0,9.28-.06,14-.08,7.82,0,15.8-.07,23.47,0,2.65,0,4.62.24,6.89.37L71.5,65l-47.79-.29a20,20,0,0,1-.1,2.58c0,.06,0,.12,0,.18V68a7.87,7.87,0,0,1-.11,1.1c0,.24.08.45.11.69v0H24c0,10.66,0,21.35,0,31.85-.06,11.13-.74,25.49-1.29,18.9-.41-4.93-.77-12.1-1.13-18.66,0-.86,0-4,0-6.1l.33.79L21.48,83c-.14,4.89-.22,7.6-.23,8.22-.25.26-.44.8-.62.59-.51-.62-1.06,2.63-1.47-7.26-.17-4-.31-10.42-.51-11.44-.27-1.35-.27-3.38-.29-7.86-.43-.11-.87-.2-1.29-.32,0,.16,0,.32,0,.48l.37,1.3c-.09,7.63-.17,14.44-.25,21.37s.1,14.08.16,22.44l-.24-3.26c0,4-.08,7.41-.12,10.26a23.91,23.91,0,0,0-.76,3.85c-.12,1.1-.28,5.76-.25,7.7.21,15-.17,28.74-.15,43.19,0,3.53,0,7.47,0,10.5.15,4.05,0,7.65.35,12.34a45.09,45.09,0,0,0,3.28,13.21,43.47,43.47,0,0,0,14.41,17.77c0,1.08,0,2.15,0,3.23a45.07,45.07,0,0,1-13.76-14c-.89-1-2.4-3.56-3.31-5-.44-.65-.21.23.42,1.77a41,41,0,0,0,4.55,8.25c1.8,2.64,3.64,4.66,3.93,5.22a28.93,28.93,0,0,0,8,6.89l.2.12q0,53.41,0,106.67c.08,42.07.16,83.64.25,125.71,0,4.08,0,8.23,0,12.36l-3.46.07,3.46.09v.33l-10.68,1.8H34.12q0,15.84,0,32l87.34.14c52.32.26,102.48.36,155.15.1l15.19,0c32.25.51,41.86-.2,62.32-.3a113.72,113.72,0,0,0,13.4-.63c1.75-.18-4.72-.39-1.54-.57,7.9-.43,31.79-.88,26.07-1.24-7.32-.46,7.63-.66,20.25-.95l-38.4-.32c39.57-.32,15.57-1.22,63.94-1.42l-16.23-.14,39.05-2.08H379.49c0-.28,6.5-.62-1.25-.84-20.64-.59-60.55-.31-89.53-.25-24,0-41.55,0-52.23-.25-11.62-.29-25.46-.33-44.11-.33L164,502.43l-.06-.14,85.51-.22L195.81,502l-127.75-.05-24.17-.1c0-.85,0-1.69,0-2.54l1.9.12c0,.17,0,.32,0,.48l8.69-.16c15.47.42,31.93.22,47.85.32,4.34,0,8.83,0,13.26,0l1.47-.18-6.54-.29,13.39-.11-20.27-.19L98.64,499c-.75-.16-1.52-.3-1-.44,1.86-.51-7.87-1.06,21.73-1.47,8-.11,19.05-.21,26.52-.33a26.86,26.86,0,0,0-3.58.27c-3.67.71-7.06,1.43-9.81,2.16-.46.12,2.22.31,4.53.41,11.54.48,24.93.17,37.49.16,9.66,0,10.92-.2,6.29-.59-1.39-.12-.25-.31-.27-.46,3.33,0,7.84-.06,9.73,0,4.1.18,6.84.43,9.46.6l28.71-.65c1.48,0,3.13-.1,3.74-.17,6.2-.71-9-1.63-24.79-1.62-17.44,0-35-.08-52.33-.19-2,0-3.66,0-5.17,0,1.78,0,3.1-.08,3.73-.12,4.18-.28,10.37-.27,24.88-.29,13.51,0,32.46-.14,37.35-.3,6.18-.2.6-.49-.07-.81l11.13-.12L176.61,495l-3.9.37-64-.26-58.37.14c0-1.45,0-3.2,0-5l.15,4.83,3-.09H50.63l.06-14.55c2.23.16,5,.24,8,.27,0,1.87,0,3.78,0,5.65,0,.22,0,.44,0,.59l14.16,0c6.15-.05,10.23-.15,12.62-.3,11.58-.71,22.28-1.43,31-2.16,1.44-.12-7-.31-14.29-.41l-40.3-.27c0-1,0-2,0-3,5.38,0,11.2-.08,16.06-.11,7.6,0,13.16,0,16.54.25,3.68.29,8.06.33,14,.33,3,0,6,0,9,.07,0,0,0,.1,0,.15l-27.08.22c5.87.11,11.43.1,17,.11,13.5,0,27.12,0,40.45.05,10.55.06,24.15.74,17.91,1.29-4.68.41-11.47.77-17.68,1.13-.8,0-3.8,0-5.78,0L143,484l-12.89.34,7.79.23c.25.25.76.44.55.62-.59.51,2.49,1.06-6.88,1.47-3.82.17-9.88.31-10.84.51-1.32.28-3.28.27-7.88.29-4.28,0-10.28.14-11.83.3-2,.2-.19.49,0,.81l-3.52.12,15.91.06,1.23-.37c7.23.1,13.68.24,20.25.26s13.34-.09,21.26-.16l-3.09.24,9.73.12a21.45,21.45,0,0,0,3.64.76c1,.12,5.46.28,7.3.25,14.18-.21,27.24.17,40.93.15,3.34,0,7.08,0,9.95,0,14.86-.32,31.36-.3,46.88-.49,19.44-.25,39-.45,57.09-.88,6.87-.16,16.74-.23,14.93-.85-1-.34,1.54-.35,10.39-.26,2.16,0,4.53,0,6.79,0q25.74,0,51.49,0c2.55,0,5,.12,7.56.18l-1.08.09,42-.17c.27,2.4.54,4.92.8,8.21.36,4.59.61,1.87.74-8.22l7.38,0c-.55-.16-.44-.29.11-.4.19,4.16.37,3.69.53-.09,1.6-.2,5-.31,9.24-.34,1.73-.59,2.83-1.11,4.87-1.62,2.5-.62-1.82-.9-13.19-.85,0-1.93,0-3.82.06-5.72,5.15-.22,6.78-.54,7.39-.84.36-.18-1.53-.41.13-.53,7.26-.55,3.25-1-4.53-1.3l6.55-.45c-3.16-.1-6.17-.23-9.51-.31.08-8.3.17-16.54.26-25.93,0-12.84,0-33,0-41,.49-35.83.4-79.5.43-120.6,0-17.8-.09-35.9-.13-54.82a59.7,59.7,0,0,0,8.4-6,43.17,43.17,0,0,0,13.14-18.65,44.55,44.55,0,0,0,2.52-10.56c.27-1.73.22-3.45.33-5.12q0-2.15,0-4.19ZM35.64,61c0-1.55,0-3,.06-4.23,0,1.42,0,2.82.06,4.23Zm-15,123.52c0-2.12.07-5.62.14-11.73.09,5.38.12,7.23.15,9.07l0-.28c0-3.83,0-7.65,0-12.17.56,11.89,0,24.11.8,29.35C20.61,194.29,20.76,189.75,20.6,184.56ZM164.51,507.88l125.44.31-2.62.2-20.53-.1-34.18.08-57.47,0c-6.5,0-11.31-.24-16.89-.37ZM488,60.05l.11,3.75h-.19C487.92,62.6,487.95,61.38,488,60.05Zm-1,13.55h-5.55c0-1,0-2,0-2.86q3.1-.08,5.57-.18C486.91,71.58,486.92,72.6,486.93,73.6Zm-439-55.16A30.43,30.43,0,0,1,67,12.52l19.67,0L126,12.43l78.72-.11,12.64.15h38.05a10.82,10.82,0,0,0-3.68-.55l-29.64-1.28c19.61-.4,19.39-.39,32.82.06l10.93.12c20.18.09,56-.31,65.31-.72,2.58-.11,6.87-.28,10.91-.29l56,0c33.62,0,59-.63,50.24-1.33-1.51-.12-1.39-.28-.09-.44a32.21,32.21,0,0,1,8.2.22,34.34,34.34,0,0,1,12.85,5,35.07,35.07,0,0,1,10.94,11.47,35.64,35.64,0,0,1,4.56,13,41.38,41.38,0,0,1,.43,5.71l0,4.26c.11,5.34.19,9.38.25,12.47,0,1.45.09,2.62.14,3.67l-5.77,0c0-5.46,0-12,0-19.77a30.88,30.88,0,0,0-14-26.8,30,30,0,0,0-15-4.81c-5.2-.14-10.17,0-15.25,0l-38.56.12c-32.31.36-65.07.66-101.86.71l-23.49.14-36.45.34c3.29-.72-4-.9-29.51-.87l-38.64.06-62.83-.06-31.4,0c-5.15,0-10.6-.38-15.84,1.25a30,30,0,0,0-13.53,8.54,3.21,3.21,0,0,1-.52.42A27.33,27.33,0,0,1,47.92,18.44ZM477.39,146.5c-.72-1.06-1.57-11.44-1.7,14.25l-.8-2.48c-.07,4.26-.11,8.63-.16,12.7l-15,0c-10.75,0-21.71.12-33.73.2,1-.55,8.53-1.17-1.81-1.5,0-2.71,0-5.43,0-8.13-.08-14.05-.16-27.95-.25-42,0-11.87.09-24.56.13-35.67,0-2.45.06-4.83.08-7.23h27.64c3.28,0,6.5.12,9.75.18l-1.39.09,17.46-.06c0,.68,0,1.29,0,1.76-.49,12-.4,26.56-.43,40.29C477.26,127.69,477.32,136.66,477.39,146.5Zm-6.71,59.74c-2.89,4.23-8.26,8-11.57,9a28.84,28.84,0,0,1-14.69.93,27.44,27.44,0,0,1-14-7.95,21.6,21.6,0,0,1-3.44-4.92,23.7,23.7,0,0,1-2.43-7.43,27.89,27.89,0,0,1-.36-3.93v-6c0-.69,0-1.38,0-2.08h27.6c3.28,0,6.5.12,9.75.18l-1.39.09,14.27,0-.16,5.17c0,.94,0,2.34-.09,2.91l-.12,2a31.84,31.84,0,0,1-1.9,7.57c-1,2.36-1.21,3.27-2,4.8Zm-7.61-25.29c-12.61.25-25.41.46-38.85.59q0-1.55,0-3.1c1.56-.11,3.83-.26,6-.27,11.08,0,22.3,0,33.42,0,3.91,0,7.54,0,11-.06q0,1.45-.07,2.75C470.42,180.86,466.44,180.88,463.07,180.95Zm0-107.21c-12.62.25-25.42.46-38.87.59,0-1,0-2.07,0-3.1,1.56-.11,3.82-.26,6-.26,11.08,0,22.3,0,33.42,0,5.07,0,9.81,0,14-.1q0,1.43,0,2.79C472.44,73.64,467.27,73.65,463.07,73.73ZM40.45,61c0-.22,0-.43,0-.65q0-5.89,0-11.85V42.56a28.84,28.84,0,0,1,.56-5.2A25.64,25.64,0,0,1,52.86,20.77a25.32,25.32,0,0,1,9.82-3.38c3.24-.37,7.57-.19,11.38-.26l123.45-.84c14.85-.15,36.2-.21,32.29-.81-2.11-.32,3.33-.34,22.46-.25h126l16.35.17-2.33.09,54.62-.1A28,28,0,0,1,470.17,25,27.34,27.34,0,0,1,476,36.52c1.11,4.18.66,8.81.77,13.54.4-3.17.64,3,.74,13.7l-17.78,0c-10.75,0-21.71.12-33.73.2,1.29-.72,14-1.57-17.42-1.7l3-.8c-11.12-.14-22.93-.17-30.17-.41-10.2-.33-20.64-.35-30.47-.19-4.95.08-6.61.45-9.75.68l.93.19c-9.37-.11-21.2-.13-27.62-.35-15.33-.55-40.24-.71-59.5-.29-3.11.07-7.57.07-11.4.07-19.9,0-39.84-.06-59.66,0-17.18,0-34.15.21-51.33.25-14.51,0-30,0-43.59-.13C72.64,61,56.71,60.92,40.45,61Zm380,10.44s0,.07,0,.11v-.11ZM95.71,211.58a39.24,39.24,0,0,0,1.69-3.75c.06.16.09.33.16.49.46,1,1.08,2,1.62,3-.5,1-1,2-1.62,3.05C97,213.57,96.31,212.53,95.71,211.58Zm1.19,3.84A38.79,38.79,0,0,1,89,224.88a48.18,48.18,0,0,1-13.76,8.53,42.65,42.65,0,0,1-14.15,3.2,41.18,41.18,0,0,1-9.35-.47v-2.64a42.28,42.28,0,0,0,17.85-.85,41.71,41.71,0,0,0,24.83-18.72c.35-.54.66-1.15,1-1.74A31.51,31.51,0,0,0,96.9,215.42ZM96.51,71h0c0,.09,0,.19,0,.28C96.52,71.17,96.52,71.08,96.51,71Zm3.91,142.7a41.73,41.73,0,0,0,15,14.75,42.5,42.5,0,0,0,32.2,4.21,41.71,41.71,0,0,0,24.83-18.72c.35-.54.66-1.15,1-1.74a31.44,31.44,0,0,0,1.54,3.24,38.8,38.8,0,0,1-7.94,9.46,48.16,48.16,0,0,1-13.76,8.53,42.64,42.64,0,0,1-14.15,3.2c-14.78,1.12-31-6.2-40.23-20.4C99.42,215.38,100,214.55,100.43,213.69Zm-1.07-17.22c0-.12,0-.27,0-.4h.11c.07,1,.15,2,.28,2.74-.06-.26-.08-.51-.14-.77a.76.76,0,0,0,0-.08C99.52,197.47,99.44,197,99.36,196.47Zm.53-100c0-6.18,0-12.44-.07-18.69H102c0,8,0,16,0,23.94-.06,11.13-.74,25.49-1.29,18.9-.28-3.3-.53-7.63-.77-12.08q0-5.94,0-11.89h0C99.89,96.56,99.89,96.5,99.89,96.44ZM99.8,73.22c0-.75,0-1.48,0-2.23H102c0,.73,0,1.45,0,2.18Zm8.41,143a37.75,37.75,0,0,0,62.42-7.46,39.78,39.78,0,0,0,2.43-5.44c.18-.52.27-1.07.42-1.6.05.21.14.42.2.63a44.06,44.06,0,0,1-2.38,6.15,37.33,37.33,0,0,1-11.68,14,38.09,38.09,0,0,1-53.21-8.36c-.08-.11-.06-.19-.09-.3C106.93,214.63,107.5,215.45,108.21,216.22ZM108.09,71h.08c0,.18,0,.36,0,.54Zm13.6,6.6-4,.24,12.54.12c1.36.24,2,.46,3.81.66l3.14-.09c9.39-.2,18.76-.17,28.13-.14,0,.06,0,.15,0,.2-.23,5.6-.33,11.8-.37,18.19,0-.31-.06-.69-.1-.91-.72-3.87-1.43-7.45-2.16-10.35-.12-.48-.31,2.34-.41,4.78-.48,12.17-.17,26.3-.16,39.56,0,10.2.2,11.52.59,6.63.12-1.46.31-.26.46-.28,0,3.51.06,8.27,0,10.27-.18,4.32-.43,7.22-.6,10l0,1.83v0c-.05,3.38-.09,6.84-.13,10.16-9.91.06-19.82.13-29.79.14-6.8,0-13.82,0-20.75,0,0-2.35,0-4.71,0-7.06-.08-14.05-.16-27.95-.25-42,0-11.87.09-24.56.13-35.67,0-2.09,0-4.11.07-6.16Zm-9.78-4.2,0-2.39c13.43.09,29.89.75,22,1.28C128.13,72.7,119.72,73.05,111.91,73.41Zm53.18,73.09,0-.07c0-1,0-2,0-2.95C165.07,144.5,165.08,145.45,165.09,146.5Zm-6.71,59.74c-2.89,4.23-8.26,8-11.57,9a28.84,28.84,0,0,1-14.69.93,27.45,27.45,0,0,1-14-7.95,21.62,21.62,0,0,1-3.44-4.92,23.08,23.08,0,0,1-2.33-7c10.78.05,22.07-.07,32.93-.08,12.46,0,14.08-.2,8.11-.59-1.79-.12-.32-.31-.34-.46h8.51a31.74,31.74,0,0,1-1.72,6.62c-1,2.36-1.21,3.27-2,4.8Zm-38.15-13.12c-3.26,0-6,0-8.23,0,0-.4,0-.81-.07-1.21v-7l9.77-.07-4,.24,12.54.12a34.75,34.75,0,0,0,4.7.76c1.35.12,7,.28,9.41.25,6-.07,11.91-.07,17.72,0l-.09,3.08c0,.94,0,2.34-.09,2.91l-.07,1.13C147.91,193.24,134,193.19,120.22,193.12Zm-8.31-12.5c0-.8,0-1.59,0-2.39,13.44.09,29.92.75,22.07,1.29C128.13,179.92,119.72,180.27,111.91,180.62Zm61.57-70.1-.24-3.26c0,4-.08,7.41-.12,10.26a23.91,23.91,0,0,0-.76,3.85c-.12,1.08-.27,5.57-.25,7.57V115.7c0-16.41-.65-28.8-1.39-24.51-.46,2.67-1.36-5.09-1.58-12.81,1.43,0,2.87,0,4.3,0,0,3.28-.08,6.5-.12,9.73C173.37,95.06,173.43,102.17,173.49,110.52Zm-1,85.36c.06.56.2,1.12.28,1.68a28.94,28.94,0,0,1-1,3.12A36.42,36.42,0,0,0,172.49,195.88Zm-.37-66.64c.07,5,.06,9.81,0,14.6,0-.27,0-.53,0-.79C172.12,138.47,172.12,133.86,172.12,129.25Zm1.67,82.33a39.51,39.51,0,0,0,1.69-3.75c.06.16.09.33.16.49.46,1,1.08,2,1.62,3-.5,1-1,2-1.62,3.05C175,213.57,174.38,212.53,173.78,211.58Zm4.72,2.11a41.74,41.74,0,0,0,15,14.75,42.49,42.49,0,0,0,32.2,4.21,41.71,41.71,0,0,0,24.83-18.72c.35-.54.66-1.15,1-1.74a31.51,31.51,0,0,0,1.54,3.24,38.79,38.79,0,0,1-7.94,9.46,48.18,48.18,0,0,1-13.76,8.53,42.65,42.65,0,0,1-14.15,3.2c-14.78,1.12-31-6.2-40.23-20.4C177.49,215.38,178,214.55,178.5,213.69Zm-1.07-17.22c0-.21,0-.48.06-.73h.07c.07,1.17.16,2.24.29,3.07-.06-.26-.08-.51-.14-.77,0,0,0-.06,0-.08C177.6,197.47,177.51,197,177.43,196.47Zm.53-100c0-6,0-12-.07-18l2.21,0c0,7.76,0,15.55,0,23.21-.06,11.13-.74,25.49-1.29,18.9-.28-3.31-.53-7.63-.77-12.09q0-5.94,0-11.88h0C178,96.56,178,96.51,178,96.45ZM208.59,74l-14.87,0c14.56-.39,29.35-.43,36.16-.11-5.85.14-11.39.32-17.71.42-2.59,0-6.88-.06-14.33-.14L208.93,74Zm1.69,5.09c10.59-.18,21.82-.25,33.12-.31-.23,5.56-.32,11.69-.37,18,0-.31-.06-.69-.1-.91-.72-3.87-1.44-7.45-2.16-10.35-.12-.48-.31,2.34-.41,4.78-.48,12.17-.17,26.3-.16,39.56,0,10.2.2,11.52.59,6.63.12-1.46.31-.26.46-.28,0,3.51.06,8.27,0,10.27-.18,4.32-.43,7.22-.6,10,0,.62,0,1.21,0,1.83v0c-.05,3.35-.09,6.78-.13,10.08q-25.29,0-50.54,0c0-2.27,0-4.54,0-6.81-.08-14.05-.16-27.95-.25-42,0-11.87.09-24.56.13-35.67,0-1.75,0-3.44.06-5.17C196.71,78.81,203.5,78.89,210.28,79.08Zm32.89,67.42,0-.07q0-1.46,0-2.92C243.15,144.52,243.16,145.46,243.16,146.5Zm-6.71,59.74c-2.89,4.23-8.26,8-11.57,9a28.84,28.84,0,0,1-14.69.93,27.44,27.44,0,0,1-14-7.95,21.62,21.62,0,0,1-3.44-4.92,23.7,23.7,0,0,1-2.43-7.43c0-.1,0-.2,0-.3l24.53-.43c1.91,0,4-.1,4.82-.17,7.69-.69-10.08-1.56-29.59-1.62,0-.47,0-.94-.08-1.41v-5.59c2.38,0,4.74,0,7.14,0,4.31,0,9.13,0,12.83,0,9.67-.16,19.88-.24,30.19-.3l-.1,3.23c0,.94,0,2.34-.09,2.91l-.13,2a31.82,31.82,0,0,1-1.9,7.57c-1,2.36-1.21,3.27-2,4.8Zm-27.86-25-14.87,0c14.56-.39,29.35-.43,36.16-.11-5.85.14-11.39.31-17.71.42-2.59,0-6.88-.06-14.33-.14l11.09-.15Zm11,48a37.82,37.82,0,0,0,29.15-20.45,39.6,39.6,0,0,0,2.43-5.44c.18-.52.27-1.07.42-1.6.05.21.14.42.2.63a44.21,44.21,0,0,1-2.38,6.15,37.33,37.33,0,0,1-11.68,14,38.09,38.09,0,0,1-53.21-8.36c-.08-.11-.06-.19-.09-.3.63.76,1.19,1.59,1.9,2.36A38,38,0,0,0,219.56,229.21Zm32-150.48c0,3.16-.07,6.25-.11,9.36.05,7,.1,14.08.16,22.44l-.24-3.26c0,4-.09,7.41-.12,10.26a24,24,0,0,0-.76,3.85c-.12,1.08-.27,5.53-.25,7.54q0-6.61,0-13.21c0-16.41-.65-28.8-1.39-24.51-.45,2.63-1.34-4.84-1.57-12.44Zm-.84-4.85h.9s0,.08,0,.12H251A1.07,1.07,0,0,1,250.67,73.88Zm-.1,122c.06.56.2,1.12.28,1.68a29.18,29.18,0,0,1-1,3.12A36.33,36.33,0,0,0,250.57,195.89Zm-.37-66.6c.07,5,.06,9.78,0,14.56,0-.27,0-.52,0-.79C250.2,138.48,250.2,133.88,250.19,129.28Zm1.67,82.29a39.14,39.14,0,0,0,1.69-3.75c.06.16.09.33.16.49.46,1,1.08,2,1.62,3-.5,1-1,2-1.62,3.05C253.12,213.57,252.46,212.53,251.86,211.58Zm4.72,2.11a41.73,41.73,0,0,0,15,14.75,42.49,42.49,0,0,0,32.2,4.21,41.71,41.71,0,0,0,24.84-18.72c.35-.54.66-1.15,1-1.74a31.51,31.51,0,0,0,1.54,3.24,38.77,38.77,0,0,1-7.94,9.46,48.17,48.17,0,0,1-13.76,8.53,42.64,42.64,0,0,1-14.15,3.2c-14.78,1.12-31-6.2-40.23-20.4C255.57,215.38,256.12,214.55,256.58,213.69Zm-1.07-17.22c0-.36.07-.8.1-1.27.07,1.39.17,2.65.32,3.62-.06-.26-.08-.51-.14-.77,0,0,0-.06,0-.08C255.68,197.47,255.59,197,255.51,196.47Zm.53-100c0-5.87,0-11.81-.07-17.74l2.21,0c0,7.7,0,15.42,0,23-.06,11.13-.74,25.49-1.29,18.9-.28-3.31-.53-7.63-.77-12.08,0-4,0-7.92,0-11.89h0C256,96.55,256,96.5,256,96.44ZM256,74c0-.06,0-.12,0-.18h2.24c0,.06,0,.13,0,.19Zm14.46,4.6c17.19-.17,34.39-.32,51.07-.54,0,.17,0,.4,0,.54,0,.64,0,1.36-.06,2-8.47,0-15.4.2-23.41.3-9,.11-18.15.2-27.65.29q8.37.32,16.73.63a22.67,22.67,0,0,1,9,2.11c2.2-.07,4-.17,5.44-.31,3.4-.33,8.7-.66,14.83-.93,1,0,2.9-.08,5-.11q-.2,6.78-.26,14.2c0-.31-.06-.69-.1-.91-.72-3.87-1.43-7.45-2.16-10.35-.12-.48-.31,2.34-.41,4.78-.48,12.17-.17,26.3-.16,39.56,0,10.2.2,11.52.59,6.63.12-1.46.31-.26.46-.28,0,3.51.06,8.27,0,10.27-.18,4.32-.43,7.22-.6,10l0,1.83v0c-.05,3.46-.09,7-.13,10.4-1.48,0-2.87-.06-4-.1-12.06-.43-30-.62-46.5-.48,0-2.19,0-4.39,0-6.57-.08-14.05-.17-27.95-.25-42,0-11.87.09-24.56.13-35.67,0-1.77,0-3.49.06-5.23ZM268.06,74c0-.08,0-.16,0-.24l53.43-.14c0,.16,0,.33,0,.48Zm53.18,72.48,0-.07q0-1.46,0-2.92C321.23,144.52,321.23,145.46,321.24,146.5Zm-6.71,59.74c-2.89,4.23-8.26,8-11.57,9a28.84,28.84,0,0,1-14.69.93,27.44,27.44,0,0,1-14-7.95,21.6,21.6,0,0,1-3.44-4.92,23.71,23.71,0,0,1-2.43-7.43,27.89,27.89,0,0,1-.36-3.93v-.79c5.35.07,11.91,0,17.18.1a155.12,155.12,0,0,0,16.23-.37c3.4-.33,8.7-.66,14.83-.93l1.81-.05c0,.86,0,1.82-.08,2.28l-.13,2a31.81,31.81,0,0,1-1.9,7.57c-1,2.36-1.21,3.27-2,4.8ZM298,188.12c-9.67.12-19.63.22-29.94.31v-2.61l2.34,0c16.09-.16,32.17-.3,47.84-.5l-.08,2.54C311.13,187.9,305,188,298,188.12Zm-29.94-6.89V181l50.33-.13c0,.16,0,.31,0,.47Zm29.57,48a37.82,37.82,0,0,0,29.15-20.45,39.82,39.82,0,0,0,2.43-5.44c.18-.52.27-1.07.42-1.6.05.21.14.42.2.63a44.19,44.19,0,0,1-2.38,6.15,37.32,37.32,0,0,1-11.68,14,38.08,38.08,0,0,1-53.21-8.36c-.08-.11-.06-.19-.09-.3.62.76,1.19,1.59,1.9,2.36A38,38,0,0,0,297.63,229.21Zm31-33.32c.06.56.2,1.12.28,1.68a28.94,28.94,0,0,1-1,3.12A36.27,36.27,0,0,0,328.64,195.88Zm-.37-66.56c.07,5,.06,9.75,0,14.51,0-.27,0-.52,0-.78C328.28,138.5,328.27,133.9,328.27,129.32Zm.25-7.95c-.12,1.08-.27,5.5-.25,7.51V115.7c0-16.41-.65-28.8-1.39-24.51-.37,2.18-1-2.6-1.4-8.63,1.65,0,3.09,0,4.07,0l-.07,5.51c0,7,.1,14.08.16,22.44l-.24-3.26-.12,10.26A23.9,23.9,0,0,0,328.52,121.37Zm-3.14-40.75c0-.87-.07-1.73-.09-2.61l4.32-.06q0,1.36,0,2.7Zm.58-6.48h-.73c0-.17,0-.33,0-.5h4.43c0,.17,0,.33,0,.5Zm4,137.44a39.42,39.42,0,0,0,1.69-3.75c.06.16.09.33.16.49.46,1,1.08,2,1.62,3-.5,1-1,2-1.62,3.05C331.2,213.57,330.54,212.53,329.94,211.58Zm4.72,2.11a41.73,41.73,0,0,0,15,14.75,42.5,42.5,0,0,0,32.2,4.21,41.71,41.71,0,0,0,24.83-18.72c.35-.54.66-1.15,1-1.74a31.51,31.51,0,0,0,1.54,3.24,38.78,38.78,0,0,1-7.94,9.46,48.17,48.17,0,0,1-13.76,8.53,42.64,42.64,0,0,1-14.15,3.2c-14.78,1.12-31-6.2-40.23-20.4C333.65,215.38,334.19,214.55,334.66,213.69Zm-1.07-17.22c0-.36.07-.8.1-1.27.07,1.39.17,2.65.32,3.62-.06-.26-.08-.51-.14-.77,0,0,0-.06,0-.08C333.75,197.47,333.66,197,333.59,196.47Zm.53-100c0-4.56,0-9.18-.05-13.78l2.19,0c0,6.34,0,12.72,0,19-.06,11.13-.74,25.49-1.29,18.9-.28-3.31-.53-7.64-.77-12.09,0-4,0-7.91,0-11.88h0C334.12,96.56,334.12,96.5,334.12,96.44Zm-.06-15.77c0-.93,0-1.86,0-2.8l2.21,0c0,1,0,1.89,0,2.85Zm0-6.56c0-.17,0-.33,0-.5h2.24c0,.17,0,.33,0,.5Zm32.73,7.59c-2.61-.36-4.8-.72-7.26-1.09l-13.45.06c0-1,0-2,0-3,8.63-.14,19.34-.24,17.19-.81-1.26-.33,2-.35,13.39-.26,2.79,0,5.84,0,8.76,0h14.12c0,.77,0,1.47,0,2-.23,5.6-.33,11.8-.37,18.19,0-.31-.06-.69-.1-.91-.72-3.87-1.44-7.45-2.16-10.35-.12-.48-.31,2.34-.41,4.78-.48,12.17-.17,26.3-.16,39.56,0,10.2.2,11.52.59,6.63.12-1.46.31-.26.46-.28,0,3.51.06,8.27,0,10.27-.18,4.32-.43,7.22-.6,10,0,.62,0,1.21,0,1.83v0c-.05,3.4-.09,6.88-.13,10.22-5.86-.06-11.22-.13-15.2-.25-10.2-.33-20.64-.35-30.47-.19-2.12,0-3.58.13-4.87.23,0-2.25,0-4.51,0-6.76-.08-14.05-.16-27.95-.25-42,0-11.87.09-24.56.13-35.67,0-.34,0-.67,0-1,10.39,0,20.39-.12,29-.1C372,82.35,369.18,82,366.77,81.7Zm9.61-8.54c-5.21-.45-11.47-.87-17.67-1.33,11.69-.41,11.56-.41,19.57.06,1.16.07,4.17.11,6.52.13,4.16,0,9.43,0,14.78-.07,0,.89,0,1.74,0,2.56-3.8,0-7.6.07-11.23.12-6.73.1-13.28.21-21.73.35,2-.75-2.39-.93-17.6-.91h-2.86v-.49h2.2c2.41,0,4.94.15,7.54.15,7.53,0,15.12,0,22.69,0A4.11,4.11,0,0,0,376.37,73.16Zm22.94,73.34,0-.07q0-1.46,0-2.92C399.3,144.52,399.31,145.46,399.32,146.5Zm-6.71,59.74c-2.89,4.23-8.26,8-11.57,9a28.84,28.84,0,0,1-14.69.93,27.44,27.44,0,0,1-14-7.95,21.62,21.62,0,0,1-3.44-4.92,23.67,23.67,0,0,1-2.43-7.43,27.72,27.72,0,0,1-.36-3.93V190c10.34,0,20.31-.12,28.89-.11-3-.37-5.86-.69-8.27-1-2.61-.36-4.8-.72-7.26-1.09l-13.36.06v-3c8.62-.14,19.28-.24,17.14-.81-1.26-.34,2-.35,13.39-.26,2.79,0,5.84,0,8.76,0h10.94l-.16,5.41c0,.94,0,2.34-.09,2.91l-.13,2a31.82,31.82,0,0,1-1.9,7.57c-1,2.36-1.21,3.27-2,4.8Zm-4.27-24.4c-6.73.1-13.28.21-21.73.35,2-.75-2.39-.93-17.6-.91h-2.85v-.5h2.2c2.41,0,4.94.15,7.54.15,7.53,0,15.12,0,22.69,0a4.09,4.09,0,0,0-2.2-.57c-5.21-.45-11.47-.87-17.67-1.33,11.69-.42,11.56-.41,19.57.06,1.16.07,4.17.11,6.52.13,3.36,0,7.46,0,11.72,0q0,1.36-.07,2.56C393.72,181.78,391,181.8,388.33,181.84Zm-12.62,47.37a37.82,37.82,0,0,0,29.15-20.45,39.69,39.69,0,0,0,2.43-5.44c.18-.52.27-1.07.42-1.6.05.21.14.42.2.63a44.3,44.3,0,0,1-2.38,6.15,37.34,37.34,0,0,1-11.68,14,38.09,38.09,0,0,1-53.21-8.36c-.08-.11-.06-.19-.09-.3.63.76,1.19,1.59,1.9,2.36A38,38,0,0,0,375.71,229.21Zm31-33.32c.06.56.2,1.12.28,1.68a28.94,28.94,0,0,1-1,3.12A36.3,36.3,0,0,0,406.72,195.89Zm-.37-66.6c.07,5,.06,9.78,0,14.56,0-.27,0-.52,0-.79C406.35,138.48,406.35,133.88,406.35,129.28Zm.25-7.91c-.12,1.08-.27,5.53-.25,7.54q0-6.61,0-13.21c0-16.41-.65-28.8-1.39-24.51-.49,2.88-1.5-6.34-1.61-14.58h4.36q-.07,5.82-.14,11.48c.05,7,.1,14.08.16,22.44l-.24-3.26c0,4-.08,7.41-.12,10.26A24,24,0,0,0,406.59,121.37Zm-3.29-46.9c0-.9,0-1.77,0-2.58l4.47-.08c0,.89,0,1.76,0,2.64ZM408,211.58a39.33,39.33,0,0,0,1.69-3.75c.06.16.09.33.16.49.46,1,1.08,2,1.62,3-.5,1-1,2-1.62,3.05C409.28,213.57,408.61,212.53,408,211.58Zm4.72,2.11a41.73,41.73,0,0,0,15,14.75,42.48,42.48,0,0,0,31.3,4.41q0,1.33,0,2.66a44.11,44.11,0,0,1-7.59,1.11c-14.78,1.12-31-6.2-40.23-20.4C411.72,215.38,412.27,214.55,412.73,213.69Zm-1.07-17.22c0-.36.07-.8.1-1.27.07,1.39.17,2.65.32,3.62-.06-.26-.08-.51-.14-.77,0,0,0-.06,0-.08C411.83,197.47,411.74,197,411.66,196.47Zm.53-100c0-6.56-.05-13.18-.08-19.82h2.22c0,8.4,0,16.8,0,25.08-.06,11.13-.74,25.49-1.29,18.9-.28-3.31-.53-7.64-.77-12.09,0-4,0-7.91,0-11.89h0C412.2,96.55,412.2,96.49,412.19,96.43Zm2.15-22h-2.23c0-.91,0-1.8,0-2.71l2.25-.06C414.34,72.58,414.34,73.49,414.34,74.41ZM94.41,195.92h0c.06.55.2,1.1.28,1.65a29.1,29.1,0,0,1-1,3.12A36.5,36.5,0,0,0,94.41,195.92ZM94,129.28c.07,5,.06,9.78,0,14.56,0-.27,0-.52,0-.79C94,138.48,94,133.88,94,129.28Zm.25-7.91c-.12,1.08-.27,5.53-.25,7.54q0-6.61,0-13.21c0-16.41-.65-28.8-1.39-24.51-.47,2.74-1.41-5.52-1.59-13.44l3.22,0h1.1c0,3.49-.08,6.89-.12,10.32,0,7,.1,14.08.16,22.44l-.24-3.26c0,4-.09,7.41-.12,10.26A24,24,0,0,0,94.29,121.37ZM95.4,75.52c-1.09.08-2.54.15-4.39.22,0-.82,0-1.47,0-2.22l4.44.1C95.41,74.25,95.41,74.9,95.4,75.52ZM91,73.4c0-.81,0-1.68,0-2.42h4.5c0,.78,0,1.56,0,2.33ZM33.72,83.84c.05-4.73.11-9.35.16-14,3.37,0,6.17.11,8.24.23,4.74.29,10.39.33,18,.33,3.85,0,7.73,0,11.6.07,0,0,0,.1,0,.14l-34.92.23c7.57.1,14.74.1,21.89.11H87.27c0,1.74,0,3.45,0,4.9C82.57,76,77,76.13,76,76.29c-1.71.28-4.24.27-10.16.29-5.52,0-13.25.14-15.25.3-2.52.2-.24.49,0,.81L46,77.82l20.52.06,1.59-.37c6.75.07,13,.16,19.1.21,0,.28,0,.65,0,.87-.23,5.6-.33,11.8-.37,18.19,0-.31-.06-.69-.1-.91-.72-3.87-1.44-7.45-2.16-10.35-.12-.48-.31,2.34-.41,4.78-.48,12.17-.17,26.3-.16,39.56,0,10.2.2,11.52.59,6.63.12-1.46.31-.26.46-.28,0,3.51.06,8.27,0,10.27-.18,4.32-.43,7.22-.6,10,0,.62,0,1.21,0,1.83v0c-.05,3.37-.09,6.82-.13,10.13-17-.19-33.54-.26-50.54-.12,0-2.25,0-4.51,0-6.76-.08-14.05-.16-27.95-.25-42C33.63,107.63,33.68,94.94,33.72,83.84ZM87,146.5l0-.07q0-1.46,0-2.91C87,144.53,87,145.46,87,146.5ZM50.59,184.91,46,185l20.52.06,1.59-.37,15.88.18-.13,4.32c0,.94,0,2.34-.09,2.91l-.12,2a31.82,31.82,0,0,1-1.9,7.57c-1,2.36-1.21,3.27-2,4.8l.46-.29c-2.89,4.23-8.26,8-11.57,9a28.84,28.84,0,0,1-14.69.93,27.44,27.44,0,0,1-14-7.95,21.62,21.62,0,0,1-3.44-4.92,23.68,23.68,0,0,1-2.43-7.43,27.89,27.89,0,0,1-.36-3.93v-6c0-2.95,0-5.88,0-8.83,3.37,0,6.2.11,8.28.23,4.74.29,10.39.33,18,.33,3.85,0,7.73,0,11.6.07,0,0,0,.1,0,.15l-34.92.22c7.57.11,14.74.1,21.89.11H84.23c0,1.76-.08,3.37-.14,4.77v.22c-3.75.11-7.31.21-8.12.34-1.71.28-4.24.27-10.16.29-5.52,0-13.25.14-15.25.3C48,184.3,50.32,184.59,50.59,184.91ZM33.84,172v-.21l9.86-.05c7.82,0,15.8-.07,23.47,0,2.65,0,4.62.24,6.89.37l-2.55.16ZM30.17,69.84c0,.56-.08,1.14-.12,1.71l-.13-1.72ZM44.75,497.62l-.82,0c.06-6.35.12-12.47.17-18.07h1.33c.11,5.56.23,11.6.35,18Zm.42-22.93.16,0c0,.12,0,.23,0,.35-.28.06-.67.11-1.17.16l.23-11.66c.21-7.59.46-9.76.68-1.85.07,3.79.16,8.12.25,12.68C44.86,474.5,44.72,474.6,45.17,474.69Zm.18,1.12c0,.14,0,.27,0,.41l-1.21.12c0-.19,0-.38,0-.56ZM47,305.33c-.09-16.1-.12-21.63-.15-27.16l0,.84c0,11.45,0,22.9,0,36.42-.32-29-.4-58.42-.25-77.34l.25.07c.1,10.37.2,20.72.31,32.08C47.08,276.57,47,287.07,47,305.33ZM46.58,235c0-.92,0-1.82,0-2.68l.13,0q0,1.35,0,2.69ZM28.33,214.17c-.08-.11-.06-.19-.09-.3.63.76,1.19,1.59,1.9,2.36a37.75,37.75,0,0,0,62.42-7.46A39.69,39.69,0,0,0,95,203.32c.18-.52.27-1.07.42-1.6.05.21.14.42.2.63a44.21,44.21,0,0,1-2.38,6.15,37.33,37.33,0,0,1-11.68,14,38.09,38.09,0,0,1-53.21-8.36ZM50.71,476h0Zm26.79-.38.83-.2c2.17,0,4.35.1,6.5.1,3.44,0,6.85-.05,10.3-.07,0,.09,0,.22,0,.32Zm20.35-6.35c-.06-14.5-.12-29.39-.18-44.1,0-9.44-.09-20.15-.13-28.09-.38-23.54-.68-47.39-.74-74.19,0-5.8-.1-11.58-.15-17.11,0-4.11-.31-8.19.17-12.44a30.24,30.24,0,0,1,4.87-13c-.37,1.2.19.67,2.32-1.81a31.18,31.18,0,0,1,15.15-9.39c4.39-1.26,9-1,13.78-1L147,268l45.76.06c7.56.13,15.38-.25,22.74.31a29.34,29.34,0,0,1,18.9,10.5,1.47,1.47,0,0,1,.18.42,29.52,29.52,0,0,0-3.1-3.22,28.59,28.59,0,0,0-11.92-6.63c-4.41-1.31-9.08-1.07-13.91-1.07l-28.66.06-28.66.06-14.33,0c-4.82.1-9.58-.34-14,.82a28.06,28.06,0,0,0-8.19,3.14A29,29,0,0,0,97.79,294a5.77,5.77,0,0,0,1-2.42,28.46,28.46,0,0,1,11.5-15.68,28.64,28.64,0,0,0-7.53,9.42,30.36,30.36,0,0,0-3.06,8.59,43.2,43.2,0,0,0-.41,7.54c-.1,14.7.33,40.76.75,47.57.12,1.88.29,5,.3,7.94,0,13.54,0,27.24,0,40.82,0,24.49.65,43,1.39,36.59.51-4.41,1.57,10.26,1.63,22.8,0,6,.08,10.8.16,14.69-1.86,0-3.77,0-5.64,0C97.86,471,97.86,470.15,97.85,469.23Zm0,6.51c0-.12,0-.24,0-.35l5.7,0c0,.13,0,.29,0,.42Zm19.34.15-10.2-.08c0-.15,0-.3,0-.46,2.29,0,4.58,0,6.82,0,2.06,0,3.58.24,5.35.37Zm47.43-3.69c-11.25,0-23.29,0-33.8-.13-8-.12-15.9-.21-23.78-.24,0-6.36,0-15,0-18.68.49-17.87.4-39.65.43-60.15-.06-13.13-.13-26.52-.2-41.21.72,1.58,1.57,17.07,1.7-21.27l.8,3.71c.14-13.54.16-28.09.42-36.77a17.29,17.29,0,0,1,11-15.18,33.52,33.52,0,0,1,3.47-1.11,16,16,0,0,1,3.54-.53l-1.14-.19c11.45.11,25.9.13,33.74.35,9.36.27,21.65.45,34.54.51l9.74,0c3.1,0,7.18,0,8.26.07a17,17,0,0,1,9.09,3.81,16,16,0,0,1,4.44,6,18.16,18.16,0,0,1,1.16,4.78l.06,1.25c0,.34,0,1.4,0,2.07v4.56l0,18.24q0,18.23,0,36.41c.08,21,.16,41.72.25,62.7,0,16.84-.08,34.73-.12,50.68-8,0-15.93,0-23.85,0C191.15,472,178,472.16,164.66,472.2Zm61.66,13c-2,0-5.33-.06-11.11-.14l8.6-.15-.27,0-11.53,0c2.63-.09,5.26-.16,7.82-.21l16.33.23C233,485,229.8,485.11,226.32,485.18ZM240.49,472h-2.41c0-8.07,0-16.13,0-24.09.06-16.61.74-38,1.29-28.21l1.13,27.85c0,1.27,0,6,0,9.11l-.33-1.18C240.31,461.17,240.39,466,240.49,472Zm.13,0c.09-4.86.15-7.74.16-8.48.25-.4.44-1.2.62-.87.49.89,1-3.53,1.43,9.36Zm.51-125.26c-.39-17.78-.43-35.85-.11-44.17.14,7.15.27,13.92.42,21.63,0,3.16-.07,8.4-.14,17.51-.09-8-.12-10.79-.15-13.55l0,.42C241.1,334.25,241.11,340,241.13,346.7Zm85.29,125.65.72.19c-7.27-.11-16.44-.13-21.42-.35-11.89-.55-31.2-.71-46.15-.29-1.15,0-2.56.05-4,.06.12-.6.26-4,.34-7.08.48-18.17.17-39.26.16-59.05,0-15.22-.2-17.2-.59-9.9-.12,2.18-.31.4-.46.42,0-5.24,0-12.34,0-15.33.26-6.42.44-10.77.6-14.9L255,320.89l-.17-5.89c-.71-9.77-1.63,14.11-1.62,39-.06,27.47-.13,55.16-.19,82.43,0,11.44,0,17.59.34,20.07.71,5.76,1.43,11.08,2.15,15.41H244.83q0-1.89,0-3.79c-.05-10.41-.1-21-.16-33.49l.24,4.87c0-6,.09-11.06.12-15.32a51.47,51.47,0,0,0,.76-5.74c.12-1.65.28-8.6.25-11.49-.21-22.34.17-42.9.15-64.47,0-5.26,0-11.15,0-15.67l-.19-18q0-4.58-.06-9.23a39.73,39.73,0,0,0-1-10.15c-3.19-13.83-15.9-24.67-29.68-25.75-31.42-.08-61.42.26-90.44.79a32.54,32.54,0,0,0-17,6.18c-4.25,3.19-6.12,6.14-4.92,5.15.7-.46.23,0-1.4,2.11a32.65,32.65,0,0,0-6.13,13.25c-.78,3.55-.61,7.5-.63,11q0,40.55,0,81.09c-.06,4-.12,7.94-.18,11.91l-.09-1.7c.07,25.89.14,51.8.21,78.39-4.28,0-8.51,0-12.87.07-1.45,0-3.93,0-4.81,0a119.49,119.49,0,0,0-15.1.13c0-12.74-.06-25.57-.08-38.1,0-30.51-.2-34.48-.59-19.86-.12,4.38-.31.79-.46.84,0-10.5,0-24.75,0-30.73.26-12.91.44-21.61.6-29.87-.23-31.27-.44-61.11-.65-90.66-.07-4.67-.14-9.88-.17-11.81-.71-19.58-1.63,28.3-1.62,78.28-.06,47.33-.12,94.94-.18,142l-1.51,0a12,12,0,0,0-4.24.63c-.55.18,1.5.39.49.57-.65.11-1.63.22-2.7.33v-2.9c.28-3.86.54-5.21.76-11.51.12-3.3.28-17.25.25-23,.05-44.8.1-86,.15-129.26,0-10.55,0-22.37,0-31.41,0-11.85-.09-24.1-.14-36.49a36.87,36.87,0,0,0,12.92-.09,57,57,0,0,0,13.84-4.85c2.36-.84,9.67-5.8,11.32-7.48a42.94,42.94,0,0,0,8.31-9.23c.58,1,1.14,1.94,1.76,2.82,1.8,2.64,3.64,4.66,3.93,5.22a28.94,28.94,0,0,0,8,6.89,47.07,47.07,0,0,0,14.76,6.16,36.42,36.42,0,0,0,16.19.47,57,57,0,0,0,13.84-4.85c2.36-.84,9.67-5.8,11.32-7.48a42.91,42.91,0,0,0,8.31-9.23c.58,1,1.15,1.94,1.76,2.82,1.8,2.64,3.64,4.66,3.93,5.22a28.92,28.92,0,0,0,8,6.89,47.05,47.05,0,0,0,14.76,6.16,36.43,36.43,0,0,0,16.19.47,57,57,0,0,0,13.84-4.85c2.36-.84,9.67-5.8,11.32-7.48a42.92,42.92,0,0,0,8.31-9.23c.58,1,1.14,1.94,1.76,2.82,1.8,2.64,3.64,4.66,3.93,5.22a28.93,28.93,0,0,0,8,6.89,47.07,47.07,0,0,0,14.76,6.16,36.43,36.43,0,0,0,16.19.47,57,57,0,0,0,13.84-4.85c2.36-.84,9.67-5.8,11.32-7.48a42.91,42.91,0,0,0,8.31-9.23c.58,1,1.15,1.94,1.76,2.82,1.8,2.64,3.64,4.66,3.93,5.22a28.93,28.93,0,0,0,8,6.89,47.07,47.07,0,0,0,14.76,6.16,36.42,36.42,0,0,0,16.19.47,57,57,0,0,0,13.84-4.85c2.36-.84,9.67-5.8,11.32-7.48a42.89,42.89,0,0,0,8.31-9.23c.58,1,1.15,1.94,1.76,2.82,1.8,2.64,3.64,4.66,3.93,5.22a28.93,28.93,0,0,0,8,6.89,47.07,47.07,0,0,0,14.76,6.16,36.43,36.43,0,0,0,16.19.47c1.13-.25,2.52-.61,4-1q0,15,0,30c-.06,8-.12,15.91-.18,23.87l-.09-3.41c.07,53,.14,106.1.21,160.64.47-5.19.73,6.68.81,25.87-1.32,0-2.48,0-3.25,0-11.35-.49-25.17-.4-38.19-.43-8.34,0-16.84.12-26.16.2,1-.72,10.84-1.57-13.51-1.7l2.35-.8c-8.62-.14-17.78-.17-23.39-.41-7.91-.33-16-.35-23.63-.19A66.77,66.77,0,0,0,326.42,472.35Zm112.3,12.1c-6,0-12.8,0-17.83.13l-12.41.29c-7.35-.31-21.6-.6-41.23-.78-4.48,0-9.11-.05-13.63-.09-4-.44-8.88-.87-13.67-1.33,9.07-.42,9-.41,15.18.06.9.07,3.23.11,5.05.13,9.33.1,25.88-.33,30.2-.75,1.19-.12,3.18-.29,5-.3,8.59,0,17.29,0,25.92,0,15.55,0,27.3-.65,23.23-1.39-2.8-.51,6.51-1.57,14.48-1.63h.72c0,.54,0,1.07,0,1.62.15,1.42.3,2.7.44,3.93Zm22.81-252.33c1.07-.33,2.12-.69,3.14-1.11,0,.89,0,1.79,0,2.68-1,.4-2.09.68-3.13,1C461.54,233.83,461.54,233,461.53,232.13Zm.5,119.82c0-18.93-.09-40.41-.13-56.31-.11-19.13-.22-38.54-.34-58.37,1-.34,2-.71,3.12-1.14,0,20.3,0,40.67,0,60.94,0,49.1.65,86.21,1.39,73.37.51-8.85,1.57,20.57,1.63,45.72.09,39.31.45,53.41.83,58.89-1.93,0-4.19,0-6.31,0,0-8.92,0-20.45,0-34.68C462.15,411.3,462.09,381.44,462,351.95Zm4.69,132.32-4.55,0c0-1.69,0-3.56,0-5.57q4.25-.05,7.14-.15c.06,2.25.11,4.11.16,5.66Zm3.52,0c0-1.61.1-3.52.14-5.7l.56,0q.06,2.88.12,5.71Zm.21-9.17c.06-3.37.12-7.15.17-11.32l.25,11.33ZM443.55,229.37a38.08,38.08,0,0,1-24.84-15.2c-.08-.11-.06-.19-.09-.3.63.76,1.19,1.59,1.9,2.36a37.75,37.75,0,0,0,62.42-7.46,39.87,39.87,0,0,0,2.43-5.44c2-5.7,1.88-11.74,1.83-18-.19.54-.4.17-.57,1.8-.4,4.38-.84,9.16-2.51,13.56a41.83,41.83,0,0,0,.84-8.31c.08-1.86.15-3.56.4-6.81.07-.95.11-3.41.13-5.33.1-9.85-.33-27.3-.75-31.87-.12-1.26-.29-3.35-.3-5.32,0-9.07,0-18.25,0-27.35,0-16.41-.65-28.8-1.39-24.51-.49,2.85-1.48-6.18-1.61-14.37l5.53,0c0,6.84.08,13.7.13,20.56,0,6.32.09,13.49.13,18.82.38,15.77.68,31.75.74,49.7.05,3.88.1,7.76.15,11.46,0,5.51.39,10.87.18,17.78-.39-.84-.46-.34-1,1.81a44.23,44.23,0,0,1-3.7,11.57,37.33,37.33,0,0,1-11.68,14A38.1,38.1,0,0,1,443.55,229.37ZM346.21,492.54c1.87.33,4.09.65,6.42,1-10,0-22.43.37-34.75-.13-1.85-.08-8.85,0-10.79.11-4.75.27-8.86.6-11.5.93a93.41,93.41,0,0,1-12.59.37c-7.54-.12-18.6.1-20.55-.6-.94-.34-8.5-.64-12.58-1-1.32-.11-2-.27-1.43-.39,1.32-.25,3.69-.49,4.79-.63,14.11-.18,27.14-.3,39.65-.51,8.36-.13,15.2-.4,25.49-.26,7.09.1,15.53,0,22.2,0C342.48,491.83,344.18,492.19,346.21,492.54ZM201.52,372.23l-3.29-.64.12-.06h1a38.91,38.91,0,0,1,3.9.12c1.18.16,1.6.51.65.72a3,3,0,0,1-.63.06c-.59,0-1.16-.05-1.8-.08l.2-.15Zm-21.37,1.92-.51-.36a15.24,15.24,0,0,1,2.74,0,3.71,3.71,0,0,0,.85,0,4,4,0,0,0,.91-.33,1.76,1.76,0,0,1,1-.13c.6,0,1.47,0,1.62.21s.67.22,1,.34c.1,0,.16.09.11.13a2.61,2.61,0,0,1-.38.22c-1.11.06-2.14.11-3.13.18a12.82,12.82,0,0,1-2,.09c-.56,0-1.23,0-1.75,0C180.43,374.4,180.3,374.27,180.14,374.14Zm23.45,4.53c0-.1.16-.22,0-.29a7.15,7.15,0,0,0-2.24-.09,4.28,4.28,0,0,1-1.31-.09,3.38,3.38,0,0,0-1.1-.11l-.71,0V378l2.14-.08c-.46,0-.9,0-1.34,0-1.07,0-2.14,0-3.19,0-.83,0-1.91-.26-1.41-.45a14.14,14.14,0,0,1,1.4-.4,4.09,4.09,0,0,1,.46,0l-.06.11,1-.12-.61-.08c0-.09-.06-.15,0-.22s-.2-.37.54-.52a4.44,4.44,0,0,0,.86-.18c.1-.1.26-.09.62-.1a4,4,0,0,0,.93-.1c.15-.07,0-.17,0-.28l.28,0-1.26,0-.1.13c-.57,0-1.08-.08-1.6-.09s-1.05,0-1.68.06l.24-.08-.77,0c-.1-.1-.13-.19-.29-.27a1.92,1.92,0,0,0-.58-.09c-1.12.07-2.15-.06-3.23-.05-.26,0-.56,0-.79,0-1.17.11-2.48.1-3.7.17-1.53.09-3.08.16-4.51.31-.54.06-1.32.08-1.18.3s-.12.12-.82.09h-4.6a5.77,5.77,0,0,1-.6-.06l.09,0-4,.07c.14.18-.22.27-.78.29a4.51,4.51,0,0,1-.38.57c-.22.25.23.34,1.39.28.73,0,1.47,0,2.21-.06.47,0,1,0,1.41,0,1.18-.13,2.38-.24,3.72-.26.29,0,.58,0,.86-.05l1.33-.12c-.12.26.15.33,1.08.32.47,0,.94,0,1.41,0l4.59.05s0,0,0,0l-.23,0-5.75.09c-.15,0-.3-.05-.46-.05h-1.39c0,.07,0,.14.13.2.32.16.7.31,1.08.47-.72.15-.71.15-1.2,0a2.15,2.15,0,0,0-.4,0,8.55,8.55,0,0,0-2.38.26,1.12,1.12,0,0,1-.4.1h-2c-1.23,0-2.16.23-1.83.49s-.51.55-1.14.57c-1.21,0-1.46.22-1.54.38s.12.14,0,.19c-.57.19-.26.34.36.45l-.52.16c.29,0,.56.1.88.12s.83,0,1,0a18.17,18.17,0,0,0,3,.15c.66,0,1.33,0,2.07-.07-.08.25-.86.55,1.07.6l-.19.28c.68,0,1.4.06,1.85.14a6.85,6.85,0,0,0,1.87.07,1.49,1.49,0,0,0,.6-.24l-.06-.07c.57,0,1.3,0,1.69.12a12.69,12.69,0,0,0,3.64.1,6.44,6.44,0,0,1,.7,0c1.22,0,2.44,0,3.65,0,1.05,0,2.09-.08,3.14-.09.89,0,1.84,0,2.67,0a27.87,27.87,0,0,0,3.88,0,2,2,0,0,1,.38,0,3.51,3.51,0,0,0,1.56-.11.41.41,0,0,0,.34-.22c0-.06-.12-.14,0-.2s.8-.31.65-.43.19-.23.51-.33l-1-.11c1-.11.39-.43,1.6-.5l-.41,0,1-.73Zm-15.07-1.81c.36-.05.7-.11,1.08-.15.16,0,.42,0,.88.05l-.68.05,0,0h.91A6.77,6.77,0,0,1,188.52,376.87Zm12.77,3.29c-.17,0-.34,0-.51,0l-.85,0c-.48,0-1,0-1.44,0a1.41,1.41,0,0,1-.42-.13l.16-.06,3.14.11Zm46-95.4c.84,2.46.83,3.91.48,2.77a40.66,40.66,0,0,0-4.13-8.26A36.84,36.84,0,0,0,211.41,261l-30.28.26c-13.17.14-23.94.4-40.15.26l-8.7,0c-3,0-5.87-.1-9.66.26a36.39,36.39,0,0,0-18.6,7.86,37.14,37.14,0,0,0-8,7.09,37.59,37.59,0,0,0-6.11,10.91,38.27,38.27,0,0,1,20.18-24.44,37.68,37.68,0,0,1,17.16-3.8l14.52.23c2.92.07,13.93,0,17-.11,7.49-.27,14-.6,18.11-.93,4-.32,9.74-.47,19.83-.37l9.64,0h5a42.5,42.5,0,0,1,6.13.49c8.07,1.15,13.82,4.95,15.22,6.26a51.28,51.28,0,0,1,7.43,7A37.48,37.48,0,0,1,247.26,284.75ZM191.1,372.61c-1.25,0-2.45-.32-2-.57a1.14,1.14,0,0,1,.3-.06l2.27-.23a6.23,6.23,0,0,0,.75.21,6.75,6.75,0,0,0,.77,0c0-.05.09-.12,0-.16-.36-.14-.27-.2.5-.21a16.72,16.72,0,0,1,3,.06c.18,0,.39.1.36.14a7.43,7.43,0,0,1-.77.76c-.12.11-.43.13-1,.12C193.87,372.63,192.48,372.6,191.1,372.61Zm193.56,10c-14.3-.11-29.13.12-43-.35-13-.45-17.62-1.46-7.21-2.06,1.67-.1,4.74-.19,6.92-.17l19.81.23-2.22.44,2.23-.1,18.13.92,4.53.23c1.54.06,2.74.2,5.4.12A39.19,39.19,0,0,0,402.95,379a17.28,17.28,0,0,1-1.78.94,37.92,37.92,0,0,1-8.76,2.31,34.14,34.14,0,0,1-4.48.39l-1.12,0h-2.15ZM99,22.31l-26.75-.08-6.07-.05a27.84,27.84,0,0,0-3.78.22c-2.18.25-3.73.78-4.51.89a18.1,18.1,0,0,0-7,4,22.12,22.12,0,0,0-6.34,10.07c-.62,2.06-.81,3.26-.81,2.23a21.78,21.78,0,0,1,1.92-7.8A23.13,23.13,0,0,1,59,20.73a27.28,27.28,0,0,1,4.25-.9c1.4-.11,2.83-.19,4.78-.18l10.76-.06,41.57-.25c18.08-.13,32.86-.39,55.13-.25l48,0,12.17,1,13.87,1c-21.7,0-48.5.36-75.15-.12-4-.07-19.13,0-23.33.1-10.28.26-19.17.57-24.87.89C120.73,22.26,112.81,22.41,99,22.31ZM338.67,363c5.69.59,16.7.31,24.69.25,6.62,0,11.46,0,14.4.25,1.6.14,3.36.23,5.35.27a47.07,47.07,0,0,0,6.24-.12,21,21,0,0,0,6.17-1.7l.07.13a21,21,0,0,1-9.62,2.07l-11.79.11c5,.06,10.29.2,14.44,0a21.51,21.51,0,0,0,13.21-6.13,21.85,21.85,0,0,0,6.2-13.1c.15-1.77.16-4.44.25-6.71l.31-6.2c.25-3.43.55-5,.83-2.31.37,4,.87,10.12,1,15.27a21.94,21.94,0,0,1-.85,4.64l-.16-.68a23.24,23.24,0,0,1-4.49,9.37,22.56,22.56,0,0,0,3.62-5.27c.32-.08.67-.39.76-.16s.6,0,.65.43-.12,1.95-2.45,5.47c-1.82,3-6.17,6.44-6.93,6.92-.89.84-2.45,1.9-6.51,3.16-3.86,1.26-9.42,1.16-10.65,1.33-1.7.2-.16.49,0,.81l-3.07.12c3,0,5.32.09,7.84,0A28.51,28.51,0,0,0,395,370.1c.38-.25.64-.47,1-.74a27.17,27.17,0,0,0,18.33-21,31.64,31.64,0,0,0,.44-5.17l-.05-5,.24,2.69c0-3.32.09-6.12.12-8.47a16.73,16.73,0,0,0,.76-3.17c.12-.91.28-4.76.25-6.35-.11-6.17-.06-12.11,0-18l.1-8.8a43.22,43.22,0,0,0-.6-9.69,27.71,27.71,0,0,0-3.79-9.29,29.86,29.86,0,0,0-18.66-13,30.6,30.6,0,0,0-5.91-.66l-5.24,0-10.26.11-49.71.88a85.05,85.05,0,0,0-9.64.5c-2.94.47-4.68,1.37-3.79,1.38.49.07.14.17-1.26.69a29.39,29.39,0,0,0-7.28,3.75,25.31,25.31,0,0,0-4.61,4.26,26.4,26.4,0,0,0-5.51,10.47c-1.11,3.87-.95,7.93-1,11.55v22.41c-.06,2.21-.12,4.39-.18,6.58l-.09-.94.05,11c.09,3.66-.19,7.26.42,11.28a26.94,26.94,0,0,0,13.08,19c-1.11-1.42,2.44,1.18,8.7,2.44,1.65-.32,2.65-.69,4.4-1.16,1.18-.29.55-.56-1.81-.82A26.49,26.49,0,0,1,302,362.32a23.87,23.87,0,0,1-10-19.74c0-5.22-.09-11.12-.13-15.53-.16-6.51-.32-13.06-.49-19.83-.05-3.39-.11-6.83-.16-10.35s-.22-7.11.74-10.63a26,26,0,0,1,3.82-8.41,25,25,0,0,1,11.22-9c-.86,1.51,1.53-.88,11.68-.74l15.56-.07,50.58.15c.11,0,.16.06.25.11l-2.57.06-63.38.24c-1.63,0-3.36-.17-5-.06a23.92,23.92,0,0,0-13.33,5.28c.46-.1.37.23,1.46-.38a22.78,22.78,0,0,1,10.36-2.81,25,25,0,0,0-6.14,2.21,33.56,33.56,0,0,0-4.37,2.31,17,17,0,0,0-2.89,2.58,20.63,20.63,0,0,0-5.2,11.7,24,24,0,0,0-.12,3.23c0,1.17.1,2.27.14,3.28.1,2,.2,3.61.31,4.56a43,43,0,0,1,.3,4.39c0,7.48,0,15.06,0,22.57,0,6.7.1,12.86.45,16.37.44,3.14,1.22,4.3,1.29,2.87.18-1.92,1.93,4.18,5.34,7.88a15.37,15.37,0,0,0,7.73,5.15,4.12,4.12,0,0,0,2.7.12c.23-.12-.76-.62.19-.5,2.09.11,2.54-.19,2-.42s-2.13-.62-4-1.55a13.17,13.17,0,0,0,3.38.43,15.82,15.82,0,0,1-5.16-2.19,14.43,14.43,0,0,1-4.69-4.44,19.23,19.23,0,0,1-1.6-4.08,15,15,0,0,1-.39-2.26,9.06,9.06,0,0,1-.06-1.17l0-.62V342c0-5.66,0-11.5,0-17.17-.06-7.26-.13-14.66-.2-22.78.36.44.75,2.79,1.07,2.4.16-.2.3-1.09.41-3.25.06-2,.15-5,.29-9.8l.75,1a11.12,11.12,0,0,1,4-8.14,14.37,14.37,0,0,1,4-2.16,10,10,0,0,1,2.16-.55,5.44,5.44,0,0,1,1.11-.14l.63-.07,1.25,0a50.86,50.86,0,0,0,6.58-.68l-.63-.19c6.33.11,14.32.12,18.65.35,10.35.55,27.17.71,40.18.29l3.67-.06h1l.47,0a7,7,0,0,1,.91.06,11.47,11.47,0,0,1,9.65,8.47c.39,1.54.42,2.35.41,6.47l.25,34.66c0,2.45,0,4.94,0,7.45s0,5.55-.07,6.14a11.22,11.22,0,0,1-2.61,6,11.72,11.72,0,0,1-8.43,4.07l-20.7.19c-1.26,0-3.42,0-4.19,0-8.89-.51-11.54.2-17.18.3a9.21,9.21,0,0,0-3.7.63c-.48.18,1.3.39.42.57-2.18.43-8.77.88-7.19,1.24,2,.46-2.1.66-5.58.95l10.59.32c-10.91.32-4.29,1.22-17.63,1.42l4.48.14-10.77,2.08h22.38C338.32,362.47,336.53,362.81,338.67,363Zm59.47-92a24.12,24.12,0,0,1,8.85,7.29,23.11,23.11,0,0,1,3.68,8.6,23.22,23.22,0,0,0-2.79-6.65l.08.21a24.33,24.33,0,0,1,3,9.11,25.94,25.94,0,0,0-5.47-12.21A30.09,30.09,0,0,0,398.14,271.06ZM363.73,358l5.66.1,9.43-.08,8,0a18.57,18.57,0,0,0,4.56-.71c1-.32,1.78-.44,2.68-.73l-.87.59a15.81,15.81,0,0,1-5,1.25l-1.32.05-2.16,0-4.32,0L363,358.17Zm52-88.39c-3.79-5.09-6.16-7-2.79-4.65a29.14,29.14,0,0,1,3.46,3.47A38.88,38.88,0,0,1,424.61,285a40.37,40.37,0,0,1,.69,4.71l.15,2.39.05,1.7q.08,3.17.16,6.4c-.18,2.28-.43,4.67-.6,8.24-.08,1.64,0,5.58,0,8.47.16,0,.34,1,.46-.23.39-4,.58-2.94.59,5.48,0,5.47.07,11.12.11,16.66V343a41,41,0,0,1-.53,6.2,35.49,35.49,0,0,1-3.89,11.44c-1.44,2.78-3.72,5.56-3.47,5a43.7,43.7,0,0,0,3.61-12.33c.09-1,.52-2.68.79-5.27a43,43,0,0,0,.3-4.55c0-1.26,0-2.69,0-4.31.06-15.08.13-30.38.19-45.57,0-.72,0-2-.09-3.23a27.69,27.69,0,0,0-.36-3.62,34.83,34.83,0,0,0-1.65-6.79A39.84,39.84,0,0,0,415.78,269.58Zm-111.3-7a31.18,31.18,0,0,0-6.85,2.38,33.67,33.67,0,0,1,17.7-5.63c5.41-.08,10.59,0,16,.22,1.61.08,7.7,0,9.39-.11,4.14-.28,7.72-.6,10-.93a71,71,0,0,1,11-.37c6.56.12,16.2-.1,17.89.6,1,.47,6.77.33,12,1.36,1.46.32,2.21.64,1.51.63a49.41,49.41,0,0,0-5.32,0l-34.73.46c-7.28.13-13.23.4-22.2.26l-9.8,0-4.93,0a35.79,35.79,0,0,0-5.54.51A27.12,27.12,0,0,0,304.48,262.6Z"/></svg>