<svg id="Layer_1" data-name="Layer 1" xmlns="http://www.w3.org/2000/svg" viewBox="0 0 512 512"><defs><style>.cls-1{fill:#141f38;}</style></defs><title>user-network-1-outline</title><path class="cls-1" d="M78.77,347.9a32.72,32.72,0,0,0,10.29,23.83,60.08,60.08,0,0,0-35.45,35.7A18.59,18.59,0,0,0,56,424.58a20.59,20.59,0,0,0,16.85,8.65h77.45a20.59,20.59,0,0,0,16.85-8.65,18.58,18.58,0,0,0,2.4-17.15,60.07,60.07,0,0,0-35.45-35.7A32.81,32.81,0,1,0,78.77,347.9Zm78.44,64a5.59,5.59,0,0,1-.78,5.17,7.47,7.47,0,0,1-6.12,3.08H72.87A7.47,7.47,0,0,1,66.74,417a5.6,5.6,0,0,1-.78-5.17c6.65-18.62,25-31.13,45.62-31.13S150.56,393.23,157.21,411.85Zm-25.93-64a19.69,19.69,0,1,1-19.69-19.69A19.71,19.71,0,0,1,131.28,347.9Z"/><path class="cls-1" d="M400.41,262.56a110.9,110.9,0,0,0-52.48,13.14l-28.26-46.27a111.59,111.59,0,1,0-127.34,0L164.07,275.7a112,112,0,1,0,11.19,6.87l28.26-46.27a111.4,111.4,0,0,0,105,0l28.26,46.27a111.53,111.53,0,1,0,63.67-20ZM210.05,374.15a98.46,98.46,0,1,1-98.46-98.46A98.57,98.57,0,0,1,210.05,374.15ZM157.54,137.85A98.46,98.46,0,1,1,256,236.31,98.57,98.57,0,0,1,157.54,137.85ZM400.41,472.62a98.46,98.46,0,1,1,98.46-98.46A98.57,98.57,0,0,1,400.41,472.62Z"/><path class="cls-1" d="M422.94,371.73a32.82,32.82,0,1,0-45.06,0,60.07,60.07,0,0,0-35.45,35.7,18.59,18.59,0,0,0,2.4,17.15,20.59,20.59,0,0,0,16.85,8.65h77.45A20.59,20.59,0,0,0,456,424.58a18.58,18.58,0,0,0,2.4-17.15A60.07,60.07,0,0,0,422.94,371.73ZM380.72,347.9a19.69,19.69,0,1,1,19.69,19.69A19.71,19.71,0,0,1,380.72,347.9ZM445.26,417a7.47,7.47,0,0,1-6.12,3.08H361.69a7.47,7.47,0,0,1-6.12-3.08,5.6,5.6,0,0,1-.78-5.17c6.65-18.62,25-31.13,45.62-31.13s39,12.51,45.62,31.13A5.59,5.59,0,0,1,445.26,417Z"/><path class="cls-1" d="M278.53,135.42a32.82,32.82,0,1,0-45.06,0A60.07,60.07,0,0,0,198,171.12a18.59,18.59,0,0,0,2.4,17.15,20.59,20.59,0,0,0,16.85,8.65h77.45a20.59,20.59,0,0,0,16.85-8.65,18.58,18.58,0,0,0,2.4-17.15A60.07,60.07,0,0,0,278.53,135.42Zm-42.22-23.83A19.69,19.69,0,1,1,256,131.28,19.71,19.71,0,0,1,236.31,111.59Zm64.54,69.12a7.47,7.47,0,0,1-6.12,3.08H217.28a7.47,7.47,0,0,1-6.12-3.08,5.6,5.6,0,0,1-.78-5.17c6.65-18.62,25-31.13,45.62-31.13s39,12.51,45.62,31.13A5.59,5.59,0,0,1,300.85,180.71Z"/></svg>