<svg id="Layer_1" data-name="Layer 1" xmlns="http://www.w3.org/2000/svg" viewBox="0 0 512 512"><defs><style>.cls-1{fill:#707070;}</style></defs><title>secure-payment-handdrawn</title><path class="cls-1" d="M65.39,95.83c-3.25.74-5.08,1-3.59.53a47.83,47.83,0,0,1,12-2.54l114.29-.65c24.17-.14,43.92-.41,73.68-.26l64.17,0L342.2,94l18.54,1c-29,0-64.82.38-100.44-.13-5.35-.08-25.56,0-31.18.11-13.74.28-25.62.61-33.24,1-7.29.33-17.87.49-36.38.38-21.79-.12-53.76.1-59.39-.62-1.37-.18-7.5-.34-14.78-.5-3.51,0-7.84-.27-11-.13A66.63,66.63,0,0,0,65.39,95.83Zm80.9,274.81H108l-4.26.18,120.38,1.88,7.39-.1-7.38.45,65.76.24,23-.17c34.56-.61,19.27-1.65-23.92-2.11C243,370.52,193.76,370.75,146.28,370.64ZM88.72,256.21l2-1.6-.83-.11c2.47-.15,1.25-.85,3.27-1.09l-2-.25c.65-.22,1.41-.38,1-.73s.93-.62,1.33-1c.16-.13-.17-.29-.08-.43a.84.84,0,0,1,.69-.49c1-.08,1.54-.62,3.19-.23a3.83,3.83,0,0,0,.78,0,53.09,53.09,0,0,1,7.93.08c1.7.13,3.64.12,5.46.1,2.15,0,4.28-.16,6.43-.19,2.48,0,5,0,7.47,0a12,12,0,0,0,1.43-.05,24.44,24.44,0,0,1,7.45.22,33.59,33.59,0,0,0,3.46.27l-.12-.14a3,3,0,0,1,1.22-.53,13.1,13.1,0,0,1,3.82.14c.91.18,2.39.21,3.78.31l-.38.62c3.93.1,2.34.76,2.18,1.31,1.5-.06,2.88-.17,4.22-.15a34.7,34.7,0,0,1,6.17.33c.41.08,1.44,0,2.1,0s1.21.18,1.8.27l-1.06.34c1.26.25,1.9.57.73,1-.27.1,0,.27,0,.41-.15.36-.68.75-3.14.84-1.29,0-2.79.86-2.34,1.25.66.57-1.24,1.1-3.75,1.07-1.39,0-2.8,0-4.18,0a2.19,2.19,0,0,0-.81.23,16.35,16.35,0,0,1-4.88.58,3.9,3.9,0,0,1-.82-.1c-1-.36-1-.37-2.45,0,.78.35,1.56.68,2.21,1,.25.13.19.29.28.44-.95,0-1.9,0-2.84,0-.33,0-.64-.12-.94-.12l-11.75.19c-.16,0-.32,0-.48,0,0,0,0,.08,0,.08,3.13,0,6.25.08,9.38.11,1,0,1.92,0,2.89-.05,1.9,0,2.45.13,2.2.7l2.72-.27c.57-.05,1.16-.1,1.75-.11a72.09,72.09,0,0,0,7.61-.57c.81-.1,1.91-.07,2.88-.1,1.51,0,3-.07,4.52-.14,2.37-.11,3.29.09,2.83.62a9.89,9.89,0,0,0-.79,1.24c-1.14,0-1.88.24-1.6.63l-8.21.16.17-.07a10.62,10.62,0,0,0-1.22-.14c-2.77,0-5.54,0-8.31,0-.37,0-.75,0-1.1,0-1.43-.07-1.83-.06-1.68.2.29.48-1.3.53-2.41.65-2.93.33-6.08.48-9.22.67-2.51.15-5.17.13-7.57.38-.46,0-1.07,0-1.61,0-2.21,0-4.32-.28-6.61-.11a3.66,3.66,0,0,1-1.18-.19c-.32-.17-.39-.37-.59-.58l-1.57-.09.5-.19c-1.28.05-2.37.14-3.43.12s-2.1-.12-3.27-.2l-.2.28-2.57,0,.57-.09c0-.25-.32-.47,0-.62a7.69,7.69,0,0,1,1.91-.23c.74,0,1.06,0,1.27-.22a8.25,8.25,0,0,1,1.75-.39c1.51-.32,1-.74,1.11-1.13,0-.14,0-.28-.09-.47l-1.26-.18,2.08-.26-.12.25a7.69,7.69,0,0,0,.93,0,28,28,0,0,0,2.86-.87c1-.42-1.19-.94-2.89-1-2.15-.06-4.35,0-6.53,0-.9,0-1.79,0-2.74-.08l4.37-.17s0-.07,0-.11c-.48,0-1-.05-1.45-.05a6.56,6.56,0,0,1-2.26-.25,8.1,8.1,0,0,0-2.67-.19c-1.48,0-3.52.26-4.58-.2-.4-.17-.06-.43-.06-.64Zm30.45,4.06,1.86,0,0,0-1.39.12a18,18,0,0,0,1.79.11c.79-.08,1.48-.21,2.22-.32A12.9,12.9,0,0,0,119.17,260.27Zm-21.72-7.14,6.41.24.32-.12a2.74,2.74,0,0,0-.86-.29c-1,0-2,0-2.94,0-.59,0-1.16.06-1.75.06-.35,0-.7,0-1.05-.07Zm18.2,17.8a12.52,12.52,0,0,1,1.53.46l4.64-.5a2.21,2.21,0,0,0,.6-.13c1-.55-1.45-1.25-4-1.24-2.82,0-5.66-.06-8.45-.15-1.17,0-1.8,0-2.06.26a15.71,15.71,0,0,0-1.58,1.66c-.07.09.36.24.73.31a32,32,0,0,0,6.05.12c1.56,0,1.76-.15,1-.46-.22-.09,0-.23,0-.35A12.88,12.88,0,0,1,115.65,270.93Zm24.28-5.62c-1.08,0-2.44.11-3.58,0a24.5,24.5,0,0,0-4.12.2c-2,.16-4.12.25-6.4.39a5,5,0,0,0-.77.48c-.1.09,0,.21.23.3.66.25,1.88.48,2,.74.31.54,2.1.37,3.32.46a3.37,3.37,0,0,0,2-.29,7.85,7.85,0,0,1,1.86-.71,7.11,7.11,0,0,1,1.74-.08,29,29,0,0,0,5.61.1c-.38-.28-.73-.53-1-.79S140.23,265.59,139.93,265.31Zm-46.49,4.6a5.85,5.85,0,0,0-1.28.13c-1.93.46-1.08,1.24,1.34,1.58a74,74,0,0,0,8,.27c.7,0,1.43,0,2.14,0l.24-.13-6.73-1.41-.41.07.41-.34C95.81,270,94.64,269.94,93.44,269.91Zm2.89,36H88.72l3.66-1.6-1.52-.11c4.53-.15,2.28-.85,6-1.09l-3.6-.25c1.18-.22,2.58-.38,1.9-.73-.54-.27,1.7-.62,2.44-1,.3-.13-.31-.29-.14-.43a1.75,1.75,0,0,1,1.26-.49c1.92-.08,2.82-.62,5.84-.23a12.83,12.83,0,0,0,1.42,0c4.94-.2,9.64-.12,14.55.08,3.11.13,6.68.12,10,.1,3.94,0,7.84-.16,11.79-.19,4.55,0,9.13,0,13.7,0,.88,0,1.9,0,2.62-.05a81.72,81.72,0,0,1,13.66.22c1.47.18,4.19.19,6.34.27l-.21-.14a8.19,8.19,0,0,1,2.24-.53,43.79,43.79,0,0,1,7,.14c1.66.18,4.37.21,6.93.31l-.7.62c7.21.1,4.29.76,4,1.31,2.76-.06,5.28-.17,7.75-.15,3.85,0,7.95,0,11.31.33.75.08,2.64,0,3.85,0s2.21.18,3.31.27l-1.94.34c2.3.25,3.49.57,1.34,1-.49.1.07.27,0,.41-.28.36-1.24.75-5.76.84-2.36,0-5.11.86-4.29,1.25,1.2.57-2.27,1.1-6.88,1.07-2.55,0-5.13,0-7.67,0a6.75,6.75,0,0,0-1.49.23,53.83,53.83,0,0,1-8.94.58,12.87,12.87,0,0,1-1.5-.1c-1.84-.36-1.81-.37-4.49,0,1.42.35,2.86.68,4.06,1,.46.13.35.29.5.44-1.74,0-3.48,0-5.21,0-.6,0-1.18-.12-1.73-.12l-21.55.19c-.3,0-.59,0-.88,0,0,0,0,.08.09.08q8.6.06,17.2.11c1.76,0,3.52,0,5.29-.05,3.49,0,4.49.13,4,.7l5-.27c1-.05,2.13-.1,3.22-.11,5,0,9.52-.28,13.94-.57,1.49-.1,3.5-.07,5.28-.1,2.76,0,5.56-.07,8.29-.14,4.34-.11,6,.09,5.2.62a11.66,11.66,0,0,0-1.44,1.24c-2.09,0-3.46.24-2.92.63l-15.06.16.32-.07c-.75,0-1.48-.14-2.24-.14q-7.62,0-15.24,0c-.67,0-1.37,0-2,0-2.62-.07-3.36-.06-3.07.2.54.48-2.39.53-4.42.65-5.37.33-11.15.48-16.9.67-4.59.15-9.48.13-13.88.38-.85,0-2,0-2.95,0-4.05,0-7.92-.28-12.12-.11a11.88,11.88,0,0,1-2.16-.19A3.46,3.46,0,0,1,130,313l-2.88-.09.91-.19c-2.34.05-4.34.14-6.29.12s-3.85-.12-6-.2l-.37.28-4.71,0,1-.09c-.06-.25-.59-.47,0-.62a25.32,25.32,0,0,1,3.5-.23,6,6,0,0,0,2.33-.22,26.21,26.21,0,0,1,3.21-.39c2.78-.32,1.86-.74,2-1.13.06-.14-.09-.28-.16-.47l-2.31-.18,3.82-.26-.22.25c.59,0,1.48,0,1.71,0,1.84-.28,3.85-.55,5.23-.87,1.85-.42-2.18-.94-5.3-1-3.95-.06-8,0-12,0-1.64,0-3.29,0-5-.08l8-.17s0-.07,0-.11c-.89,0-1.78-.05-2.66-.05a21.62,21.62,0,0,1-4.14-.25,26.91,26.91,0,0,0-4.9-.19c-2.72,0-6.46.26-8.39-.2C95.72,306.37,96.33,306.11,96.33,305.89ZM144.54,310l3.41,0,.08,0-2.55.12c1.71.06,2.7.14,3.29.11,1.45-.08,2.72-.21,4.07-.32A43.12,43.12,0,0,0,144.54,310Zm-39.82-7.14,11.76.24.59-.12a8.2,8.2,0,0,0-1.58-.29c-1.76,0-3.59,0-5.39,0-1.07,0-2.13.06-3.2.06-.64,0-1.28,0-1.93-.07Zm33.37,17.8c1.21.14,2,.33,2.8.46l8.5-.5a7.06,7.06,0,0,0,1.11-.13c1.84-.55-2.65-1.25-7.34-1.24-5.16,0-10.37-.06-15.49-.15a11.06,11.06,0,0,0-3.77.26A26.69,26.69,0,0,0,121,321c-.14.09.66.24,1.34.31a107.32,107.32,0,0,0,11.1.12c2.86,0,3.23-.15,1.86-.46-.41-.09-.07-.23-.08-.35C136.19,320.6,137.53,320.55,138.09,320.61ZM182.6,315c-2,0-4.47.11-6.57,0-3-.11-5.07.09-7.55.2-3.7.16-7.56.25-11.74.39a12.25,12.25,0,0,0-1.42.48c-.18.09,0,.21.42.3a24.56,24.56,0,0,1,3.72.74c.58.54,3.85.37,6.08.46a10.85,10.85,0,0,0,3.73-.29,22.72,22.72,0,0,1,3.41-.71,23.75,23.75,0,0,1,3.19-.08,97.37,97.37,0,0,0,10.29.1c-.69-.28-1.34-.53-1.9-.79S183.17,315.28,182.6,315ZM116,321.58l.44-.13L104.11,320l-.76.07.76-.34c-2.39-.07-4.54-.14-6.74-.18a19.42,19.42,0,0,0-2.35.13c-3.54.46-2,1.24,2.45,1.58,4.71.37,9.75.19,14.61.27C113.37,321.59,114.7,321.58,116,321.58Zm395.46,10.08.11,2.82c0,.62,0,1.21,0,1.76-.06,2.16-.11,3.86-.14,5.18-.11,2.62-.26,3.7-.42,3.94-.33.48-.73-2.37-1.1-2.9.07,9.83.14,18.8.2,27.58,0,6.86,0,13.94,0,20.79q0,2.57,0,5.09l0,2.5-.21,3.47A36.35,36.35,0,0,1,506,414.66a42.16,42.16,0,0,1-4.71,7.45,37.38,37.38,0,0,1-7.67,7.16,35.6,35.6,0,0,1-15.34,5.93,35.68,35.68,0,0,0,9-3.26,30,30,0,0,1-11.13,2.53c-1.56-.1-.34-.22,4.57-1.62,2.22-.71-.39-.27,0-.57s2-.91,5.4-2.65A36.26,36.26,0,0,0,500.89,416,28.68,28.68,0,0,0,505,401.72c-.08-4.11-.62-5.37-.84-4-.75,4.29-1.46-8.1-1.42-24.49,0-9.09,0-18.26,0-27.33,0-2-.19-4.06-.31-5.32s-.21-3.09-.31-5.52a34.63,34.63,0,0,0-1.59-9.26,31.8,31.8,0,0,0-11.8-15.68,46.8,46.8,0,0,0-5.15-3,23.78,23.78,0,0,0-7.35-2.37,24.22,24.22,0,0,0-4-.24l-5.64.23c4.84.39,10.82.81,14.89,3,1.56.77,1.12.8,1.56,1.22a28.14,28.14,0,0,0-9.42-2.19c-3.24-.16-6.23,0-9.33-.09l-6.16-.16-76.74.25-3.12.06c.12,0,.17.11.31.11l61.25.15,18.84-.07c12.41-.08,16,.25,14.39,1a26.51,26.51,0,0,1,23.55,15.17,28.72,28.72,0,0,1,2.62,13c.06,4.26.11,8.43.17,12.54l.5,24c0,5.33.09,12.48.13,18.8l0,7.43a29.66,29.66,0,0,1-1.16,7.7,28.51,28.51,0,0,1-8.24,12.94,26.21,26.21,0,0,1-15.39,6.77c-3.24.1-4-.16-2.49-.58a17.5,17.5,0,0,0,4.87-2.25c7.09-1.72,10.35-5.58,8.65-4.73A25.09,25.09,0,0,0,496.75,397c0-8.92-.07-17.78-.11-26.63l.1,1.14.19-8V336.41a25.29,25.29,0,0,0-10.5-22.1,24.93,24.93,0,0,0-5.92-3.1,24.12,24.12,0,0,0-8.59-1.55c-1.7,0-2.11.13-1.59.3,1.91.64-8.5.7-15.75.87l-60.19.9-12.42.12-6.21.07a22.12,22.12,0,0,0-5.29.77,22.34,22.34,0,0,0-15,13.27,23.86,23.86,0,0,0-1.7,8.6c0,14.41-.37,28.19-.16,43.14,0,1.93-.14,6.59-.26,7.69a23.52,23.52,0,0,1-.78,3.84c0,2.82,0,6.17-.07,10.15-.13-.76-.17-1.55-.29-3.15a24.82,24.82,0,0,0,6.66,18.58,24.12,24.12,0,0,0,17,7.71l1.27-.36,16.77.06-3.72.13c.22.33,2.09.62,0,.83-1.63.16-8,.28-12.47.3a58.79,58.79,0,0,1-7.89-.53c-1,.18-6.88-1.92-9.95-4.42-3.79-2.95-4.72-4.4-5.27-4.58s-.34.44-.74.34-.11.48-.15.86a27.26,27.26,0,0,0,6,6.22,27.74,27.74,0,0,1-9.38-10.81l.66.61a30.43,30.43,0,0,1-2.22-6,42.22,42.22,0,0,1-1.37-10.23l-.6-8.71c-.28-3.29-.6-1.35-.85,2.8l-.32,7.51a32.57,32.57,0,0,0,.79,9.48,30.57,30.57,0,0,0,25.92,23c4.34.44,7.53.18,11.18.26l17.9.11-14.27.12-7.14.06-3.57,0c-1.28,0-2.74,0-4.1-.22v.15a95.42,95.42,0,0,0,10,.32c6.23,0,10.85,0,14.73.33,3.57.27,9.42.3,17.44.26,9.67-.06,23-.34,29.89.26,2.59.23.42.57.42.86H472l-13,2.13,5.42.14c-16.15.2-8.14,1.13-21.35,1.45l12.82.33c-4.21.29-9.2.5-6.76,1,1.91.37-6.07.83-8.71,1.27-1.06.18,1.1.39.51.58a13,13,0,0,1-4.48.65c-6.83.1-10,.83-20.81.31l-5.07,0-25.94.15c-4.46-.18-7.67.38-15.19-.68a39.92,39.92,0,0,1-18-8A40.82,40.82,0,0,1,337,408.79a40.2,40.2,0,0,1-1.18-6.81l-.16-3.45v-2.29c0-.76,0-1.5,0-2.25-20.32.34-10.85,1-40.65,1.28l35.14.33c-11.55.29-25.23.5-18.53,1,5.23.37-16.63.83-23.86,1.27-2.92.18,3,.39,1.41.58a93.28,93.28,0,0,1-12.27.65c-18.73.1-27.52.83-57,.31l-13.9,0-71.12.15-35.27-.08-17.74-.07a103.19,103.19,0,0,1-20.58-1.6,77.23,77.23,0,0,1-47.72-31.89,75.47,75.47,0,0,1-11.77-28c-.39-2.52-.83-5-1.11-7.55l-.37-7.52q0-6.18,0-12.29C.18,272,.1,234,0,195.46q0-16.66,0-33.37V149.56l.22-5a72.65,72.65,0,0,1,4-20.11C13,98.27,36.81,78.23,64.05,74a55.19,55.19,0,0,1,8.1-.87l4.15-.2h3.36l12.17-.06c43.18-.44,99-.26,133.37.3l61.91.36L285,73.32c7-.24,10.77-.62,21.86-.7,22.12-.14,45.27-.19,68.48.23a78.25,78.25,0,0,1,35.86,9.78,77.06,77.06,0,0,1,30.85,32.27,72.79,72.79,0,0,0-4.84-6.75,73,73,0,0,1,10.3,24.39,88.27,88.27,0,0,1,1.5,9.53l.28,7.43c-.11,7.18-.26,10.14-.42,10.8-.33,1.32-.73-6.51-1.1-8,.07,26.94.14,51.52.2,75.61,0,4.69,0,9.46,0,14.2a42.18,42.18,0,0,1,4.63,3.66l-.11-.33A8.36,8.36,0,0,1,455.3,247a29.64,29.64,0,0,1,6.17,7.09c1.08,1.9,3.17,4.79,4.54,7.73l-1.15-.36c4.16,8,1.45,5.21.77,5.18a60.84,60.84,0,0,1,3.66,8.59c1.31,4.41,2.49,9.19,2.43,13.18,0,.89.41,3.08.42,4.5,0,.21,0,.38,0,.58H473a39.79,39.79,0,0,1,18.5,5.19,42.29,42.29,0,0,1,12.7,11.18A40,40,0,0,1,512,328.7a29.48,29.48,0,0,0-1.52-3.51A36.33,36.33,0,0,1,511.47,331.66ZM369.09,434.73a33.1,33.1,0,0,0,7.58,1.07l19.19,0,11.41-.08,6.85.1.87-.21-20.94-.16-10.47-.08-5.24,0-2.78,0c-1.2-.07-2.4-.09-3.6-.25ZM440.62,237.6c0-.31,0-.6,0-.91q0-19,0-38.19l-3.12,0q.14,18.58.28,36.84c0,.34,0,.72,0,1.07Q439.26,237,440.62,237.6Zm-5.8-46.5V176.68l-43.58-.13,7.71-.38-7.72.08-125.77-1.58,4.45-.15h40c41.44.08,84,0,124.87.18V154.37a79.39,79.39,0,0,0-1.44-18.13l0-.15-34.37,0,3.26-.08-22.83-.16h-176c-26.71-.08-34.31-.06-31.36.22,5.46.54-24.36.59-45.1.73l-97.85.43c-.19.77-.47,1.5-.61,2.28,21.28-.12,40.49-.28,67.68-.17l67,0,17,.94,19.37.88c-30.3,0-67.72.32-104.94-.11-5.59-.07-26.71,0-32.58.09-13.85.23-25.85.49-33.83.77a45.84,45.84,0,0,0-.56,5.32l-.1,2,0,2.56,0,5.13q0,5.14.08,10.3c0,2.67,0,5.39.06,8.07l16.87.31,29.38,0c0-.13,3.39-.3-.8-.4-14-.34-10.19-.5,19-.51,37.94,0,78.38-.28,113.22.14,7,.08,15,.25,13.67.35-8.32.62-18.56,1.24-29.63,1.86-4.77.27-16.55.33-38.49.29l-123.19-.13c0,2,0,4,0,6l66.63.07c5.54,0,18.88.12,22,.22,6,.19,7.31.42,11,.66l29.37.1-9.33.21,64.21-.14,61.15.22,3.73-.32,48,.05-10.64.11c.64.28,6,.53.07.7-4.68.14-22.79.24-35.71.26-13.87,0-19.79,0-23.79.25-2.92.17-21.22.3-32.75.44-28.31.36-19,.83-20.78,1.27-.62.16.92.31,1.68.53l23.53.2-38.94.29,2.26-.28H172.18l-53.4,1c-18.86.47,22.23,1.06,54.08,1.11l122.16,0,51.27.09-81.77.19.06.12,27.16.06c17.83,0,31.07,0,42.18.28,10.21.23,27,.26,49.94.22C399.29,191.16,417.91,191.08,434.82,191.1Zm-169.73,4.22-6,.14c5.33.11,9.93.31,16.15.32l55,0,32.69-.07,19.63.08,2.5-.18ZM25.59,183.25q0-3,0-6H18.43q0,3,0,6ZM207.86,133.4H154.73l-17.65-.13-106.82.1c0,.11-.06.23-.1.35l54.5,0,54-.06c35.62,0,45.81.14,41.21.79l50.9-.3,32.8-.13,142.23-.64,26.89-.05c-.21-.8-.43-1.6-.68-2.4-7.73,0-16,.05-24.84,0l-78.26,0c-5.64,0-11.63.16-15.23.26-13.07.36-63,.73-91.2.65l-15.26-.11c-18.76-.41-18.46-.41-45.83-.05l41.38,1.15A22.82,22.82,0,0,1,207.86,133.4Zm229.42-2.47-3.15,0c.25.8.53,1.59.75,2.4H438c-.18-.67-.31-1.29-.53-2C437.39,131.23,437.33,131.07,437.29,130.93Zm1.41,5.15h-3.1a73.74,73.74,0,0,1,1.58,16.45q0,8.59.09,17c0,1.74,0,3.42,0,5.16h3.3c0-4.31,0-8.65,0-12.94-.05-5.45-.09-11-.41-14.69A76.21,76.21,0,0,0,438.69,136.08Zm-409.9-2.71H20.71c0,.11-.05.22-.08.33h8.05C28.72,133.6,28.75,133.48,28.79,133.37ZM18.43,175.12l7.2.13c0-7.3.07-14.44.1-21.11.08-5.3.1-8.68.77-12.19-2.2.07-4.65.14-7.52.19a76.09,76.09,0,0,0-.54,9c0,4.95,0,10.06,0,14.89C18.44,169.08,18.44,172.08,18.43,175.12ZM27,139.55c.17-.77.31-1.55.52-2.28l-7.84,0c-.06.28-.16.56-.21.84-.08.46-.11,1-.18,1.44Zm-11.37-6.17H15c0,.11,0,.22-.08.32h.6Zm-1.53,3.95c-.14.75-.22,1.52-.34,2.28h.57c.12-.79.25-1.57.39-2.28Zm-.7,4.89A62.13,62.13,0,0,0,13,149.4c.08,7.93.15,16.12.23,24.28,0-6.19,0-11.9,0-17.38,0-3.15,0-6.25.17-9.33-.11,3.93,0,9.16,0,17.47.1-8.37-.08-14.91.37-20.2.06-.72.15-1.35.23-2Zm424,48.88h3.18V176.69h-3.28C437.35,181.53,437.39,186.31,437.43,191.1ZM82,86a4.8,4.8,0,0,0,.85.11l167.9.15,51.65-.07c34.09,0,43.85.17,39.45.93l25.8-.2c7.89-.21,15.47,0,22.8,2a61.56,61.56,0,0,1,27.29,15.24,63.31,63.31,0,0,1,14.19,20.65H435a66.16,66.16,0,0,0-8.65-14.95A67.1,67.1,0,0,0,406,92.31a64.46,64.46,0,0,0-23-7.61A81.71,81.71,0,0,0,374.3,84l-6.3-.09c-18-.48-17.66-.49-43.87-.06l39.61,1.36a17.82,17.82,0,0,1,4.92.58H317.8l-16.89-.16-210.38.25ZM25,122.43l9.48.07.53-.76c1-1.09,1-1,.09.77,8.27.06,16,.14,22.86.23l64.69.3-2.18-.16c7.36-.2,11.25-.52,22.84-.59,23-.14,47.49-.12,71.37.16l70.64.35-7.11.69c73.52.12,43.81.85,40.78,1.47l79-.17,31.61,0c-8.22-18.34-25.87-32.34-45.88-35.24-6.24-1.09-13-.73-19.33-.8-25.56-.09-32.84-.08-30,.27,5.22.64-23.31.7-43.16.87l-165,.9-34,.12c-5.69,0-11.55,0-17.12.11a61.28,61.28,0,0,0-15.86,2.56C44.19,98.16,32,109.21,25,122.43Zm-6,0h.59a62.88,62.88,0,0,1,18.11-23A61,61,0,0,0,19,122.4ZM218.15,395.65l-114.81-.32-5.72.16c5.1.13,9.5.37,15.45.38l52.6,0,31.29-.08,18.79.1ZM361.46,311.2a24.86,24.86,0,0,0-9.14,9c-3,4.58-4.23,11.17-3.72,17.11a31.51,31.51,0,0,1,1.71-12.3l.14-.26a26.36,26.36,0,0,0-1.66,9.17,27.07,27.07,0,0,1,3-11.53A27.73,27.73,0,0,1,361.46,311.2Zm15.94-17.36h.79c-.24-2.46-.93-1.4-.83-5-.31,1.65-.58,2.76-.75,4.13-.22-1.39-.19-3-.76-2.29-.44.6-.6-2.09-.93-3-.13-.38-.43.32-.59.1a2.06,2.06,0,0,1-.46-1.61c.36-2.31-.25-3.58,1.14-7.09a15.25,15.25,0,0,0,.49-1.7,51.31,51.31,0,0,1,7.13-16.79,78.55,78.55,0,0,1,7.85-10.43,53,53,0,0,1,12.64-10.27,42.35,42.35,0,0,1,19.42-5.38c1.32-.13,2.86,0,3.94,0a28.43,28.43,0,0,1,8.06,1v-6.56l.1,3.12c.06-7.28.12-14.49.19-21.85V198.57c-13,.19-23.86.49-48,.14l-14.53,0c-50.36.22-98.33.14-148.36-.09l-102.07-.11L28,198.67c0,3.54.06,7.05.08,10.63l-.62,27.34c0,5.47,0,18.51,0,28.12.16,0,.35,3.24.47-.77.4-13.38.6-9.75.61,18.17,0,9.08,0,18.31,0,27.56l.06,13.76A50.41,50.41,0,0,0,30,334a49.33,49.33,0,0,0,24.11,31.49c4.46,2.63,10.26,4.26,9.23,4.11a45.41,45.41,0,0,1-20.63-8.93,35.92,35.92,0,0,1-7-7.17,48.28,48.28,0,0,1-8.68-18,53,53,0,0,1-1.35-7.55c-.09-2.58-.3-4.95-.23-8.33l0-18.86q0-18.88.06-37.83,0-32.13,0-64.26H18.4c0,28.12-.07,56-.11,85.64,0,5.3-.14,18.06-.26,21.09-.23,5.76-.49,7-.78,10.53-.09,7.89-.36,16.55,3.22,26.45A60,60,0,0,0,54,377.91c8.49,3.49,17.25,4.66,26.86,4.51l30,.16,3.57-.38,46,.06-10.19.13c.61.33,5.72.62.06.83-4.48.16-21.81.28-34.18.3-13.28,0-18.94,0-22.77.3-1.4.1-6.48.19-12.58.28a73.29,73.29,0,0,1-18.43-1.43,63,63,0,0,1-13.37-4.49c-2.78-1.11-4-2-4.67-2.16-1.31-.49.09.68-.77.45-.61-.16.56.78,1.07,1.39a54.23,54.23,0,0,0,6.2,3.28A61.34,61.34,0,0,0,66,385.82a61.51,61.51,0,0,1-18.81-6,63.33,63.33,0,0,1-15.06-10.55L34,370.51a70.85,70.85,0,0,1-6.87-7.08c-1.91-2.63-3.72-4.8-4.26-5.85a64.39,64.39,0,0,1-10.19-25.86c-1.28-9.21-.88-17.36-1.25-24.14-.28-9-.6-3.71-.85,7.68-.06,5.52-.55,13.19,1.08,21.3a64.24,64.24,0,0,0,9.48,23c11.27,17.12,31,28.87,52,29.61,19.92.31,39.24.08,58.83.16l49.07.11-78.26.23.05.15,26,.07c17.07,0,29.74,0,40.37.33,9.77.27,25.84.3,47.8.26,26.52-.06,63-.34,81.94.26,7.1.23,1.15.57,1.15.86h35.54c0-1.44,0-2.9,0-4.32-.08-14-.17-27.93-.25-42V334.6l.1-2.32a40.14,40.14,0,0,1,5.24-17.79,40.8,40.8,0,0,1,29.91-20.23,29.49,29.49,0,0,1,3.68-.33l1.88-.08Zm37.51-44.7-2.42,1c1.68-.55,2.68-.74,3.24-1,1.38-.57,2.66-.88,4-1.34a17.53,17.53,0,0,0-3.61.53,21.33,21.33,0,0,0-4.58,2.07,21.47,21.47,0,0,1,3.28-1.33Zm-36.25,30.62a68.41,68.41,0,0,1,5-13l.15-.71a8.54,8.54,0,0,0-1.13,1.56,41.08,41.08,0,0,0-2.39,6,37.64,37.64,0,0,0-1.09,3.63l-.7,2.16Zm73.65,14.48c2.35-.22,3.78-.55,7.08-.66a66.54,66.54,0,0,0-2.88-14.16l.18.27a17.5,17.5,0,0,0-.55-2.11,49,49,0,0,0-6.81-13.1c-.35-.55-.85-1-1.21-1.52-1.51-2-2.06-2.52-2.12-2.08-.14.82-2.06-1.18-3.61-2.26a31.06,31.06,0,0,0-13.87-5.89A23.27,23.27,0,0,0,416.71,254c-.66.32-1.6.53-2.37.9a27,27,0,0,0-8.92,5.81,7.33,7.33,0,0,1-1.57,1.2,3.84,3.84,0,0,1-1.27.18l-1.81,2,.36-.82c-1.43,1.69-2.27,3.41-3.36,4.9-.87,1.63-2,3-2.9,4.91l.2.48a35,35,0,0,0-1.76,4.12l.22-1c-.33-.06-.77.31-.78-.29a11.33,11.33,0,0,1,1-3.25c.53-1.21.76-1.73.69-2.2a19.11,19.11,0,0,1,1.08-3c1-2.58.17-2.09-.2-2.53-.12-.15-.36-.13-.62-.2a17.78,17.78,0,0,0-1.44,1.91,32.34,32.34,0,0,1,1.83-3.53l.14.38c.34-.5.9-1.24,1-1.47l2.65-5c1-1.85-2.61.8-4.69,3.55a54.28,54.28,0,0,0-6.4,11.26l-2,5a66.83,66.83,0,0,1,3-8.12l-.14-.06-1.27,2.61a29.61,29.61,0,0,1-1.92,4.08,16.4,16.4,0,0,0-1.78,5c-.69,2.89-1.14,6.92-1.91,8.94-.31.76-.58.06-.87,0-.18,1.26-.28,2.51-.36,3.91l1.21,0c5.43-.15,11.41-.22,17.42-.24,0-.15-.06-.28-.09-.47a10.26,10.26,0,0,1,0-1.94,45.51,45.51,0,0,1,1.22-5.34l.29.69a5.57,5.57,0,0,1,.06-.61,44,44,0,0,1,4.95-8.31l0,.37c-.37.9-.84,1.75-1.17,2.66-1.5,3.34-2.09,7.21-3.1,10.76a15.12,15.12,0,0,1-.71,2.18c10.94,0,21.86.19,29.71.54,5.25.23,14.92.25,22.59.36Zm16.28-.8c-.17-.9-.35-2.09-.6-3.72-.28-2.64-2-5.43-2.35-4.43-.55,1.42-1.72-2.18-3.12-6.9a52.13,52.13,0,0,0-3-7.7,5.82,5.82,0,0,0-.95-1.33c-.94-1.09-3.92-5.38-5.61-7.8-.31-.49-.78-1.07-.89-1.34-.93-1.79-.76-1.93-3.16-3.67a25.3,25.3,0,0,1,1.85,4.13c.17.48-.07.53-.12.77a40.38,40.38,0,0,0-3.59-4c-.43-.44-.75-1-1.17-1.38-5.61-4.9-12.77-8.39-20.34-8.58h-.91s0,.11.09.11a31.51,31.51,0,0,1,16.62,5.65,46.29,46.29,0,0,1,4.33,3.29c2.58,2.5,3.11,3.4,2.23,3.57a46.3,46.3,0,0,1,3.4,3.72c.64.83,1.33,1.7,2,2.61a86.85,86.85,0,0,1,6.48,12.65,41.58,41.58,0,0,1,1.47,5.21,79.62,79.62,0,0,1,1.44,8.39c0,.32,0,.52,0,.8C464.66,293.47,466.57,293.45,468.6,293.44ZM365.76,325.92c.93-1.42-.39-1-2.22,1.26a12.61,12.61,0,0,0-2.21,4.92,8.52,8.52,0,0,0-.24,1.62l-.08.85,0,1.47c0,2,0,4.1,0,6.18-.07,18.39-.13,36.92-.2,55.18,0,1.11,0,1.55,0,2a6.33,6.33,0,0,0,.15,1.38,13.57,13.57,0,0,0,.51,2.17,6.12,6.12,0,0,0,1.25,2.24,10.71,10.71,0,0,0,5,2.95c.25.06-.65-1-1.28-1.93a13.63,13.63,0,0,1-1.87-3.93,14,14,0,0,1-.45-2.19A6.5,6.5,0,0,1,364,399a18.4,18.4,0,0,1,0-1.93c0-6.7-.07-13.55-.11-20.17,0-10.19-.2-11.51-.61-6.63-.12,1.46-.31.26-.47.28,0-3.51-.06-8.27,0-10.26.18-4.32.44-7.22.62-10-.11-5.22-.23-10.32-.34-15.35a13.41,13.41,0,0,1,1.65-7.29C365.08,326.94,365.65,326.25,365.76,325.92Zm105.82-10a20.55,20.55,0,0,1,5.91.78,20.45,20.45,0,0,0-4.62-1.82c-1.52-.47-3.76-.76-5.63-1.16l-23.41,0c-10.86-.15-18.06.12-26.88.26l-41.55.57a14.24,14.24,0,0,0-3.62,1.12c-.42.27.13.18,1.14.18a18,18,0,0,1,2.67,0l3.88.2a42,42,0,0,1,5.39.5c2.05.72,13.71.49,21.66.62a101.47,101.47,0,0,0,13.27-.38c2.78-.34,7.11-.67,12.12-1,2-.11,9.42-.19,11.37-.11,6.5.26,13,.28,19.23.25Zm-30.43,97.24c2.64,0,6.36-.08,8.38-.17,12.61-.61,7-1.65-8.73-2.11-16.76-.49-34.71-.25-52-.36l-13.23-.05c-.24,0-.49.12-.73.15l1.28.19,2.65.13,5.49.23,11,.47,22,.94,2.7-.1-2.69.45Zm-21.74-48.1-.27.55c-.07.15-.14.33-.21.52a1.16,1.16,0,0,1-.06.16,2.64,2.64,0,0,0-.63,2c0,.15,0,.3,0,.44a2.54,2.54,0,0,0,.46,1.91,2.38,2.38,0,0,1,.24.47,1.83,1.83,0,0,0,0,.25h0a7.38,7.38,0,0,0-.13,2.4c0,.25,0,.48,0,.7l.1,2.94,2.17-2.19.6-.52L422,386l.66-.36.75.34a3,3,0,0,1,.38.19l.88.43.66-.38c.84-.5.85-1.56.78-2.6,0-.18,0-.36,0-.55h0a1.76,1.76,0,0,0,.35.11c0,.71.14,2.24,1.39,2.63a1.39,1.39,0,0,0,.86.39l1.1,2.21.87-3.53a6.37,6.37,0,0,0,.16-.83,5.3,5.3,0,0,0,0-.86,11.33,11.33,0,0,0,.25-2.91v-.48c0-.3,0-.61,0-.92a1.45,1.45,0,0,0,.45-.51l.56.27.24-2.47a6.87,6.87,0,0,1,.11-1,6.08,6.08,0,0,0,.13-2.4,2,2,0,0,0-.39-.93,6.8,6.8,0,0,1,.08-.83,10.32,10.32,0,0,0,.18-4.31,4.21,4.21,0,0,1,0-.49v-1.43c0-.78,0-1.55,0-2.32,0-.54,0-1.07-.07-1.6s-.05-1.07-.06-1.61a24.34,24.34,0,0,1,.06-2.6,18.33,18.33,0,0,0,0-4.09l.05-.18,3.37,1.74L432.42,351c0-.19-.11-.37-.17-.55a1.59,1.59,0,0,0-1-1.29l-.21-.08a1.74,1.74,0,0,0-.71-.61l-.9-2-.69-7.59-1.29,7.48L426,345.06V349l-.25.44a4.55,4.55,0,0,0-.32,2.56l0,.39c0,.12,0,.22,0,.31l-.52-3.09-.78,4,0-.05-.5-.69-2-8.39-.19,8.67-.16,0,.15.81,0,1.22.13.69c0,.36-.07.72-.07,1.07s0,.45,0,.69l-.07.9a1.61,1.61,0,0,0-.18.21,2.46,2.46,0,0,0-.38,1.47,11,11,0,0,1,0,1.8c0,.46-.06.92-.06,1.64a5.15,5.15,0,0,0,0,.72c0,.14,0,.3,0,.45l-.06,0Zm-.33-10.28.22-3.28c0-.41.06-.81.08-1.21h0a3.3,3.3,0,0,0-.15-1c-.42-1.38-1.39-1.49-1.68-1.4a1.64,1.64,0,0,0-1.39,1l-.62-.53.35,1.27c0,.13-.07.28-.1.44a15,15,0,0,0-.19,2.93c0,.41,0,.83,0,1.22s0,.56,0,1.13l.09.52.4.56c-.07.14-.2.16-.25.32a8.46,8.46,0,0,0-.15,2.57c0,.26,0,.53,0,.79a2.51,2.51,0,0,0,.35,1.46l0,.07-.14.32.38,2.67a2.27,2.27,0,0,0,.32.86l.76.84.86-.29c1.39-.46,1.46-2.83,1.46-3.29,0-1.39,0-2.79.1-4.17a2.38,2.38,0,0,0-.63-2,12.17,12.17,0,0,0-1-.72l.43-1.53ZM415.9,262a28.49,28.49,0,0,0-8.39,6.79c-1.11,1.16-1.46,2.05-1.43,2.49a12.27,12.27,0,0,0,.68,3c.07.16.48-.28.86-.6,1.74-1.75,3.14-4.09,4.9-5.72,1.34-1.21,1.43-1.44.49-1.23-.28.07-.24-.21-.35-.33a18.33,18.33,0,0,1,1.45-1.16,15,15,0,0,1,1.78-.39,21.17,21.17,0,0,1,4.12-2.57,1.9,1.9,0,0,0,.55-.27C421.46,261.15,418.66,260.54,415.9,262Zm26.78.91c-1.17-1.26-2.9-2.49-4.22-3.68a25.74,25.74,0,0,0-2.81-1.77l-2.71-1.06a26,26,0,0,0-9.07-1.28,6.87,6.87,0,0,0-1.05.73c-.13.13,0,.28.33.37a6.34,6.34,0,0,1,2.64,1c.35.66,2.56.81,4,1.4a5.71,5.71,0,0,0,2.58.57,8,8,0,0,1,2.68.3,12.07,12.07,0,0,1,2.14,1.24c1.93,2.18,4.39,3.8,5.87,5.82l-.21-1.91Z"/></svg>