<svg id="Layer_1" data-name="Layer 1" xmlns="http://www.w3.org/2000/svg" viewBox="0 0 512 512"><defs><style>.cls-1{fill:#707070;}</style></defs><title>box-handdrawn</title><path class="cls-1" d="M314,495.63l39.61-15.2,97.59-37.56,24-9.26c4-1.66,7.78-2.78,12.16-5a34.84,34.84,0,0,0,10.87-8.81c6.1-7.13,9-17.11,8.5-26q-.08-12.82-.16-25.41c-.17-25.44-.24-62-.9-55.32-.35,3.61-.37-5.71-.28-38.47,0-8,0-16.76,0-25.16V154.09c-.11-16,.26-31.59-.25-47.88a35.5,35.5,0,0,0-10.89-21.86A34.38,34.38,0,0,0,484,77.77l-10.85-4.17-25.37-9.87L451.42,65l-85-32.23-42.9-16.26L301.87,8.34c-7.14-2.76-14.62-5.63-22.37-7.1,3.14,1,.6.46-5.93-.4a104.77,104.77,0,0,0-29.82.49,116.61,116.61,0,0,0-16.56,6c-4.54,2.17-2.13,1.08,7.79-1.57a97.92,97.92,0,0,1,53.38,1.44c30.94,11.29,62.82,23.65,94.27,35.47l60.06,22.7,38,14.16c12.78,3.92,22.46,16.95,22.15,31.24.09,28.82.17,58.6.27,90.11.05,13.64.11,27.23.16,40.23.11,19.35.23,38.14.37,62.43-.79-5.64-1,6.86-1,50.55q0,16.58,0,33.15c-.09,5.54.4,11.07-.85,16.26a32.64,32.64,0,0,1-7.18,14,31.52,31.52,0,0,1-10.12,7.72c-3.87,1.69-8.1,3.13-12.13,4.71L448,439.27l-48.89,18.56-97.76,37.1a7.11,7.11,0,0,1-1,.27l9.92-3.85L432.7,444.62l30.61-11.68,15.31-5.84c5.24-1.8,9.82-4,13.7-7.78a32.2,32.2,0,0,0,8.36-13.4c1.76-5.12,1.59-10.51,1.55-16.21l0-33.71c.05-6.93.11-14.18.16-21.65V269.17a28,28,0,0,0-.6,6.31l-1.41,50.76c-.44-33.58-.44-33.21.07-56.22,0-3.34.09-12,.14-18.72.1-34.57-.35-95.84-.79-111.87-.12-4.42-.31-11.76-.32-18.68,0-3.89,0-8.16-.06-11.75a29.48,29.48,0,0,0-.9-5.87l.59-.33-.62.24a27.5,27.5,0,0,0-1.31-4.1,28.46,28.46,0,0,0-13.71-14.65c-1.45-.69-3.17-1.35-5.07-2.06l-5.46-2.08L462,76l-21.8-8.31C387.83,47.72,348,33.38,361.45,39.35c9.24,4.11-22.49-6.73-49.32-16.87l-17.47-6.58a97.83,97.83,0,0,0-13.44-4.3,83.06,83.06,0,0,0-18.88-2.36c-9.4,0-12.79,1.07-14.3,1.41-1.13.32,5-.12-.37.63-11.64,2.19-14,3.73-10.6,2.92A99.39,99.39,0,0,1,262.36,12a85.28,85.28,0,0,0-20.8,2.29,86.9,86.9,0,0,1,35.36.35,87.87,87.87,0,0,1,10.41,2.86c3.42,1.16,8.12,3,12.06,4.5l19.92,7.62c38,15,84.58,32.65,128.37,49.35l21.18,8,10.33,3.95a19.89,19.89,0,0,1,6.14,4,21.22,21.22,0,0,1,6,10.79L469.72,114c-.1-.29,2.12-1.53-.76-.69-7.68,2.24-22,8-32.45,12.05-8.66,3.35-15,5.73-19,6.93-.84.25-1.82.6-2.72.9A28.32,28.32,0,0,0,404.56,116l28.39-9.54,2.88-1.21-2.75,1.56,26.06-9.64c2.86-1.07,6.85-2.7,9-3.63,13.43-5.81,7-4.55-10.2,1.48-17.64,6.18-36.23,13.47-54.36,20.28a28.36,28.36,0,0,0-2.42-1.73c-2.86-1.74-5.89-2.62-8.67-3.73l-34.22-13-68.41-26-20-7.83,2.9,1L187.29,31.58c4.33-1.7,9.59-3.74,16.09-6.25l-16.46,6.11-.07,0,40-17.61L179.33,31.9c-.24,0-.45.13-.69.17l.12,0-38.4,14.61c-.1-.28,6.7-3.27-1.64-.35-22.21,7.77-64.65,24.23-95.51,36l-4.71,1.8a31.47,31.47,0,0,0-3.77,1.72,27,27,0,0,0-10.82,11,10.51,10.51,0,0,1-1.86.37c-.88.09-.52.51,1.05,1.26a28.75,28.75,0,0,0-1.47,3.81,25.83,25.83,0,0,0-.84,4c-1.28-.18-1.13.15-.1.78,0,.3-.09.59-.11.89l-.23-.05.22.1c-.17,2-.18,4.12-.18,6.45l-.17,10.9c-.3,13.63-.35,29.86-.34,51.73,0,11.07,0,22.21-.07,33.32l-.15.07-.23-100.29c0,21.75-.08,42.32-.11,62.87,0,50,0,100.47-.06,149.84-.07,39.07-.79,89.47-1.37,66.33l-1.2-65.5c0-3,0-14.07,0-21.42l.34,2.78c-.12-16.25-.22-29.15-.36-47.76-.15,17.17-.23,26.69-.25,28.86-.27.93-.46,2.82-.65,2.06-.54-2.18-1.12,9.23-1.56-25.49-.18-14.14-.33-36.58-.54-40.16-.29-4.9-.28-12.17-.31-29.18,0-15.85-.15-38.07-.32-43.8-.21-7.25-.52-.69-.86.08v.06c0-1.78-.06-6.21-.13-13.12,0,25.37,0,42.25-.06,58.93l.39,4.57c-.1,26.79-.18,50.67-.27,75s.11,49.43.17,78.76L12,342.49c0,14.12-.09,26-.13,36-.29,4.53-.57,6.11-.8,13.5,0,1-.1,2.6-.06,5a36.82,36.82,0,0,0,1.07,8.39,36.82,36.82,0,0,0,24.54,26.5l17.45,6.63,34.29,13.12,68.21,26.12,33.49,12.7c12.66,4.63,25.12,9.6,38.76,14.32a101.5,101.5,0,0,0,65.06-1.53Zm18.2-341c-1.24.33-6.34,2.09-8.42,2.91l-2.16.84-9.55-3.82-1-.39L327.52,148l6.28,2.4,3.36.86a14,14,0,0,1,2.62,1.42l-3.15,1.16A28.94,28.94,0,0,0,332.2,154.65ZM338.13,144c.79.31,1.56.6,2.49,1a22,22,0,0,1,6.72,4.9l-6.42,2.36c-.26-.19-.45-.4-.74-.58-1.75-1.21-4.36-2-7.46-3.2l-3.24-1.22Zm-2.64-8L322.31,131l-26.37-10.12-52.73-20.24,2.28.63,17.25,6.67,28.8,10.87,48.39,18.37,2.14.84a25.69,25.69,0,0,1,2.95,1.42,26.7,26.7,0,0,1,5,3.58,28.31,28.31,0,0,1,4.07,4.54l-.27.11a28.8,28.8,0,0,0-2.11-2.48,27.82,27.82,0,0,0-8.86-6.2c-.06-.11-.16-.2-.22-.32l-.21.08ZM180,74.08c-6.8-2.09-27.08-9.27-22.4-7.08,6,2.81-6.66-1.76-17.39-5.51l32.2,12.63c-30-11.07-17.21-5.34-43.59-15l1.26-.63c1-.52-.84.06-2,.36l-.31-.11.44-.21c8.26-3.64,33.56-13.8,27.33-11.84-2.46.77-2.64.7-1.33.09l5.35-2,9-3.44,2.11-.79.72-.24h0l1.74.76L179,43.31,191.11,48l25.31,9.77,52.36,20L338.39,104c-2.92-.28-29.39-9.35,35.28,15.41l-6.55-1.56,17.25,6.67,4.28,1.65c1.41.54,3.07,1.19,3.37,1.35a11.31,11.31,0,0,1,3.29,2.29,12.43,12.43,0,0,1,3.47,6.55,13.09,13.09,0,0,1,.2,1.69q0,1.35,0,2.62c0,2.35-.06,4.57-.08,6.62-.35,23.13-.37,46.82-.2,69.13.08,11.22.47,15,.73,22.12l.2-2.12c-.13,21.26-.29,48.08-.37,62.66-.58,34.78-.76,91.28-.3,135,0,2.47,0,5.35.06,8.4-11.44,4.31-23.21,8.77-34.94,13.24q0-24.65,0-49.14c-.09-39-.17-77.48-.26-116.45,0-32.92.09-68.13.14-98.88q0-9.09.09-18.09l0-4.5c0-1.68.08-2.39-.08-5.68a34.21,34.21,0,0,0-5-15.43,32.91,32.91,0,0,0-11.44-11.15,41.86,41.86,0,0,0-6-2.74l-4-1.56-16.19-6.19-65.46-24.74L243,96.3c-27-10.85-35.31-13.2-52.56-19.65A84.69,84.69,0,0,0,178.9,73C177.36,72.64,182.73,74.92,180,74.08ZM127.56,58.82l.22.09C127.35,59,127.2,59,127.56,58.82Zm1,.39,3.12,1.22-3.45-1.06Zm284.8,80.66c0,.14,0,.28,0,.42l-2.84,1.09c0-.15,0-.3,0-.46Zm-.91,295.55q-.13-106.45-.26-212.93c.05-5.47.11-11.2.16-17.1V153.92a17.67,17.67,0,0,0-.6,5L410.33,199c-.44-26.52-.44-26.23.07-44.4,0-1.75,0-5.32.08-9.09l2.91-1.12c0,3.47.05,7,.08,10.58.06,8,.13,16.52.2,26.12-.79-4.45-1,5.42-1,39.93,0,17.46,0,34.92.07,52.28q-.07,82.11-.15,164.1l-.17.06C412.46,436.76,412.45,436.12,412.45,435.42Zm-62.09-6.77.23,32.24-.19.07C350.38,450.82,350.37,440.63,350.35,428.65ZM346,158.17c-.27-.52-.6-1.06-1-1.63l5.51-2.44a23,23,0,0,1,.95,2.13C349.64,156.9,347.79,157.55,346,158.17Zm-1.67-6.84,3-1.4.17.16Zm12,.14v-.06c.21.4.48.73.68,1.14C356.86,152.18,356.6,151.84,356.39,151.47Zm-17.46-7.77c.79.32,1.63.67,2.65,1.16a22.66,22.66,0,0,1,6.47,5l0,.09-.07,0-.19-.18h0a23.37,23.37,0,0,0-9.14-5.93Zm-3.53,17.2c2.42-1.15,5.41-2.49,8.58-3.9a15.19,15.19,0,0,1,.87,1.57C336.67,161.38,330.61,163.17,335.4,160.91Zm18.21,5.89s0,.09,0,.13v14.84c0,19.77,0,39.49-.05,59-.07,30.85-.79,70.66-1.37,52.39-.32-13.72-.78-33.56-1.2-51.73,0-2.34,0-11.11,0-16.91l.34,2.19c-.12-12.83-.22-23-.36-37.72-.15,13.56-.23,21.08-.25,22.79-.27.73-.46,2.23-.65,1.62-.54-1.72-1.12,7.29-1.56-20.13-.08-5.59-.18-12.81-.26-19,0-2-.06-3.75-.09-5.42ZM350.18,438c.09,13,.12,18.41.15,23l-.26.1C350.1,455.49,350.14,448.08,350.18,438ZM463.24,125a16.34,16.34,0,0,0,4.61-2.49c.57-.43-1.85.25-.76-.37,2.7-1.52,11.17-5.28,9-4.86-2.81.54,2.51-1.73,7-3.75l-14,5c14.19-5.77,5.18-3.39,22.59-10.25l-5.92,2.09,5.85-3.29c.08.5.23,1,.27,1.5l.09,2.08v3.13l0,6.31q0,6.34,0,12.81c-.76-3.71-1.66-40.15-1.8,50l-.85-8.72c-.16,31.93-.33,65.84-.43,86.65-.35,29.29-.37,59.29-.2,87.54.08,14.21.47,19,.73,28l.2-2.68c0,6.73,0,13.9-.07,21.16,0,1.06,0,1.57-.05,2a12.24,12.24,0,0,1-.14,1.52,19.09,19.09,0,0,1-.63,3,18.29,18.29,0,0,1-11.24,12l-14.95,5.53c-11.66,4.25-25.44,9.35-40.3,14.9.11-4.07.23-7.16.35-8.07.74-5.69.51-38.05.64-60.11.11-18.73-.06-29.44-.39-36.82-.35-7.71-.69-19.73-1-33.64-.12-5.68-.19-26.14-.11-31.56.53-36.05.11-72.3.14-101.65l-1.08,18.77-1.15,16.46c0,19.51,0,44.21,0,64.94-.15,30.12.13,50.12.27,74.57.14,31.16.28,63.57.44,97.8l-2.78,1c0-12.18-.07-24.31-.11-36.23-.32-56.86-.63-114-.93-167-.17-20.09-.24-49-.9-43.69-.35,2.85-.37-4.51-.28-30.38,0-4.66,0-9.64,0-14.61,6.62-2.53,13.2-5,19.94-7.69l5.5-2.07C452.66,129.94,455.88,127.89,463.24,125Zm-24.42,5.41-.87.57-7.46,2.72-12.33,4.78-2.78,1.06c0-.13,0-.27,0-.41ZM404.67,119a27.19,27.19,0,0,1,7.74,13c.18.61.29,1.23.4,1.85l-2.63.94a24.34,24.34,0,0,0-7.2-13.6,22.72,22.72,0,0,0-4.28-3.16l3.34-1.12A19.75,19.75,0,0,1,404.67,119ZM218.17,47l47.45,17.9,125.47,46.87a52.86,52.86,0,0,1,10,4.46l-3.32,1.26a32.72,32.72,0,0,0-4.74-2l-11.9-4.41c-15.59-5.76-29.53-10.82-35.36-12.79-3.21-1.09-8.55-2.91-13.51-4.79l-68.9-26.19c-41.32-15.76-72.8-26.94-62.26-22.07,3.24,1.5,0,.66-6.44-1.43l-11.69-4-6.46-2.27.25-.1-.27.1-2.24-.79c2.16-.89,4.8-2,8.15-3.29ZM116,64.54c4.48-1.73,7.47-3,9.64-4l40.71,15.49c-.1.28-5.7-1.45.75,1.26C184.28,84.54,218,97,242.39,106.26c20.22,7.64,35,13.29,43.87,17,9.67,4,21.31,8.49,37,14.46l10.95,4.19-.35.14-4.72-1.78-18-6.79-36-13.58,45.09,17.28,13.24,5-8.61,3.31c-9.87-3.7-20.35-7.57-23.62-8.67-5.27-1.77-.68.31-.24.85l-9.41-3.44,31.37,12-3.63,1.4c-11,4.21-12.39,4.95-7,3.34,1.63-.48.4.21.47.36l-4.51,1.73-23.71-9.48-55-22-6.83-2.49,6.95,2.13L169.27,98l-21.19-7.86c-32-11.48-18.31-5.09,21.24,10.48,42.07,16.56,87.42,33.54,131,50.27l6.84,2.62c-2.25.86-4.34,1.66-5.53,2.06l-11,3.49-38.33,15.34-6.5,2.62,0,1.68c.27,5.47.57,4.29.84-1l8.75-3,10.9-3.84c4.9-1.69,10.65-3.77,16.45-6l27.28-10.28,10.77,4.12c-15,5.86-29.19,10.89-43.85,16.49l-11.94,4.59-9.93,3.92c0,2.85,0,5.79.06,8.7l-11.33-4.31c.1-.29,1.28-.23.1-.94-3.15-1.88-9.75-4.07-14.49-5.81a65.82,65.82,0,0,1-8.42-3.49,52.34,52.34,0,0,0-7.07-3.07c-1.54-.58-3.07-1.22-4.6-1.83l0-.15,14,5.07c-3-1.26-5.84-2.34-8.7-3.43-6.94-2.65-14-5.28-20.79-8-5.4-2.13-12.15-5.49-8.74-4.83,2.56.49,6.18,1.46,9.51,2.3.43.11,2,.74,3,1.13l-.5.19,6.76,2.18L200,165.65c0-.31-.23-.6-.06-.74.49-.41-.9-1.58,4.08-.17,2,.57,5.19,1.61,5.77,1.6.78,0,1.79.37,4.16,1.24a61.3,61.3,0,0,0,6.19,2c1.08.18.28-.47.29-.84l1.86.56-8.16-3.17-.77.14c-3.69-1.51-6.95-2.92-10.33-4.22s-6.9-2.52-11-4l1.68.36-5-2a7.41,7.41,0,0,0-1.6-1.49,28.72,28.72,0,0,0-3.66-1.68c-7.37-2.56-14-5.5-21-8.16-1.72-.65-3.63-1.41-5.13-1.91-7.76-2.58-16.24-5.83-24.3-8.67-10.09-3.55-20.21-7.16-29.69-10.27-3.59-1.18-8.7-3-8-2.05.38.53-.92.06-5.44-1.77-1.1-.45-2.33-.88-3.5-1.33Q73.24,114,60,109c-1.31-.5-2.55-1.11-3.82-1.67l.59.12-23-8.52a17.75,17.75,0,0,1,3.45-3.42,14,14,0,0,1,2.07-1.28,7.65,7.65,0,0,1,1.22-.58l.63-.28,1.16-.44,7.39-2.77C84.28,77.56,94.25,72.94,116,64.54ZM268.79,184.28l13.09-5L270.23,184l-9.55,3.7c0,4.18-.09,7.51-.22,9.87l-.3-10.24,5.44-2.23,12.56-4.61-9.69,3.86Zm-41,2.37-.5,0c-1.1-.46-2.2-1-3.31-1.37-1.86-.71-3.72-1.35-5.6-2-3.13-1.16-6.33-2.32-9.38-3.52a19.84,19.84,0,0,1-2.61-1.43l1.08.22Zm-71.73-38.08,5.95,2.21a104.87,104.87,0,0,1-14.47-5.37c2.39.74,4.66,1.41,7.22,2.26,1,.35,2.72,1.11,5.66,2.32L156,148.47ZM88.84,124c1.91,1.25,4.26,2.64,6.56,4.05-4.82-1.35-4.76-1.33-7.79-3-.44-.25-1.62-.75-2.55-1.12a130.29,130.29,0,0,0-15.81-5.14,15.91,15.91,0,0,1-2.7-.68c-4.43-1.65-8.91-3.34-13.34-5.05-8-3.08-14.28-4.67-12.46-3.12,1.25,1.07-3.92.33-8-1.16l-2.64-.94a14.37,14.37,0,0,1,.4-2.26A17.45,17.45,0,0,1,31.84,102c4.43,1.6,8.93,3.27,13.4,4.9,3.1,1.13,6.58,2.5,9.22,3.36,7.82,2.54,15.73,5.19,24.5,8.46,1.9.71,3.81,1.35,5.64,2,2.72.92,5.37,1.8,8.8,2.94-1.06.47.61,1.32,6.69,3.61,3.07,1.16,6.17,2.26,9.22,3.43q14.93,5.74,29.83,11.52c.06,0,.07.1.11.17-.5-.17-1-.32-1.54-.51q-18.77-7-37.53-14c-1-.36-1.92-.9-3-1.3-3-1.16-6-2.3-9.05-3.44C88.36,123.34,88.11,123.49,88.84,124ZM38.66,90.13l1.47-.62,2.09-.79,4.18-1.58-2.71,1.27A51.19,51.19,0,0,0,37,91.2C37.55,90.87,38.05,90.41,38.66,90.13Zm-5,3.16c.51-.43,1.13-.67,1.67-1.05a21.87,21.87,0,0,0-5.38,5.38c-.08.11-.13.24-.21.35s-.11,0-.21,0A21.66,21.66,0,0,1,33.64,93.3Zm-5.43,7.33a22.22,22.22,0,0,0-1.86,6l-.2-.06a22.81,22.81,0,0,1,.8-3.32A21.42,21.42,0,0,1,28,100.56ZM25.74,217.12c-.06-2.44-.11-4.9-.17-7.33l.16-73.57,0-18.39v-4.6c0-1,0-2,0-2.82l.16.07.1,0c0,6.44,0,12.89,0,19.39,0,22.47,0,45.37,0,67.41C26.12,204.94,25.87,210.58,25.74,217.12ZM61.86,420.91l-16.73-6.32L41,413a21.16,21.16,0,0,1-2.23-1,17.91,17.91,0,0,1-3.93-3A18.33,18.33,0,0,1,30,400.32a20.1,20.1,0,0,1-.41-2.5,9.87,9.87,0,0,1-.08-1.27c0-.3,0-1,0-1.83v-9.25c0-41.68.09-86.27.14-125.2.09-30.69.17-60.74.26-90.84,0-15.05,0-30.11,0-45.28l0-11.39V112c1.15.43,2.21.83,2.8,1.11,5.66,2.72,12.8,5.34,19.49,7.92,4.28,1.65,8.71,3.17,13.53,4.92-.78.54-6.15-.51,6.32,4.39l-1.51.36c4.38,1.83,9.08,3.66,11.88,5a106.5,106.5,0,0,0,12.09,4.82,19,19,0,0,0,4.14.78l-.3-.33c3.7,1.54,8.41,3.35,10.89,4.55a198.6,198.6,0,0,0,23.63,9.33c1.27.4,3,1.08,4.57,1.66,7.94,3,15.87,6.11,23.79,9.08,6.87,2.57,13.7,5,20.57,7.54,5.8,2.17,12,4.52,17.34,6.75,8.43,3.51,16.56,6.72,25.24,9.72.75.26,2,.75,2.47,1,5.07,2.52,6.89,2.39,10.26,3.55a3.74,3.74,0,0,0,2.41.18c.35-.08-.63-.7,0-.68,1.44.05,5.5,1.06,4.7.34-1-.92,1.49-.21,3.64.28l-6.14-2.71c6.56,2.13,3-.29,10.94,2.51L250,192.83l5.23.21c.11,14.45.22,29.52.32,44,.32,24.41.63,48.92.93,71.72.17,8.63.24,21,.9,18.76.35-1.22.37,1.94.28,13,0,2.72,0,5.69,0,8.54v64.68c-.07,3.19-.13,6.33-.19,9.5l-.1-1.36c.07,21.1.15,42.21.22,63.91.34-1.42.58.38.72,4.14a83.37,83.37,0,0,1-14.59-1.38,81.41,81.41,0,0,1-8.62-2.15c-2.86-.84-5.45-1.86-8.9-3.16l-19.48-7.42L128.9,446.27Zm159.36,75.68-23.64-8.77-37.35-14.38,29,10.86-.88-.39-38.83-14.73,54.89,20.51,22.68,8.62a102.69,102.69,0,0,0,17.21,4.57A104.43,104.43,0,0,1,221.22,496.59ZM261,490c0-2.33,0-4.84,0-7.73-.06-11.56-.13-23.44-.19-35.17,0-7.53-.1-16.06-.13-22.4-.4-18.77-.72-37.8-.79-59.17-.05-4.62-.11-9.23-.16-13.65-.11-6.56-.23-12.93-.37-21.17.79,1.91,1-2.33,1-17.14,0-7.5,0-15-.07-22.45q.08-36.51.15-73a1,1,0,0,1,.11-.37c0,1.21,0,2.43.07,3.71q.13,45.71.26,91.44c-.05,2.34-.11,4.82-.16,7.34v22.11a3.76,3.76,0,0,0,.6-2.14l1.41-17.22c.44,11.39.44,11.26-.07,19.07-.07,1.13-.12,4.06-.14,6.35-.1,11.72.35,32.51.79,37.94.12,1.5.31,4,.32,6.34,0,10.8,0,21.72,0,32.56,0,19.53.69,34.3,1.47,29.19.54-3.52,1.66,8.18,1.72,18.19.05,8,.18,13.29.34,16.93C265.12,489.8,263.08,490,261,490Zm28-5.42-3.4,1.21c-2.28.73-4.56,1.4-6.78,1.93a82,82,0,0,1-8.23,1.53l.09-3.47c0-5.11,0-13.12,0-16.33.52-14.25.43-31.62.46-48-.07-10.47-.13-21.15-.21-32.86.76,1.26,1.66,13.62,1.8-17l.85,3c.15-10.83.18-22.34.43-29.39.35-9.93.37-20.11.2-29.69-.08-4.82-.47-6.44-.73-9.5l-.2.91c.12-9.13.13-20.65.38-26.91.58-14.94.76-39.2.3-58,0-3,0-7.38-.07-11.11l0-13.68,21.18-8.06,45.35-17.54,6-2.25c0,1.56,0,3.13,0,4.69,0,9.76-.07,19.28-.1,28.9.05,19.34.11,39,.17,62.2l-.26-9c0,11.15-.09,20.54-.13,28.45-.29,3.57-.57,4.83-.8,10.66-.13,3.06-.29,16-.27,21.35-.05,41.5-.1,79.69-.16,119.74,0,8.79,0,18.36,0,26.62l-7.75,3,.16-15.65c.05-10.87.12-23,.18-35.35.07-51,.14-102.44.21-153.09.05-21.25,0-32.67-.36-37.28-.76-10.73-1.52-20.64-2.29-28.7-.13-1.34-.33,6.48-.43,13.24-.51,33.75-.18,72.92-.17,109.67,0,28.27.21,31.94.63,18.39.12-4.06.32-.73.49-.78,0,9.73,0,22.93,0,28.46L335,392.6c.17,25.38.34,49.89.5,74.08-9.78,3.77-19.32,7.46-28.37,11L293,483.13Zm-159.65-9c53.27,20.26,104,40.61,82.83,33.41l-12.64-4.62-96.87-36.09L71.12,455.55,38.38,443.06c0,.18-3.9-1.08.73.81,7.72,3.17,10.51,4.4,7.3,3.29L37,443.7l-3.86-1.45-2.18-.82L27.59,440a47.17,47.17,0,0,1-13.81-10,49,49,0,0,1-12.1-22.09A53,53,0,0,1,.21,395.37l0-8.89c0-11.86,0-23.76-.06-35.54,0-23.56,0-46.64.28-68,.1-8.55.3-18.46.43-16.76.77,10.21,1.53,22.76,2.29,36.34.33,5.85.41,20.3.36,47.21q0,24.41,0,49a45.86,45.86,0,0,0,12.89,29.42,43.29,43.29,0,0,0,13.16,9.27c2.74,1.21,4.25,1.72,6.15,2.46L41.2,442ZM512,340.48c0,10.91,0,22.09,0,33.39q0,8.48-.08,17l0,4.27a50,50,0,0,1-.28,5.15,40.7,40.7,0,0,1-2.49,10.38A42.23,42.23,0,0,1,494.52,430c-3.87,3-9.26,5.09-12.06,6.11l-7.53,3c-15.9,6.37-29.61,12-38.36,15.68-8.38,3.56-20.64,8.4-42.23,16.5-25.42,9.53-62.57,23.92-69.38,25.69-1.65.43-8.86,3-17.39,6-4.37,1.54-8.62,3.17-13.49,4.78a97.67,97.67,0,0,1-13.36,3.42c-5,.91-7.82,1-5.49.56a119.6,119.6,0,0,0,17.74-5l133.5-51.29,40.37-15.63,10.37-4c3.62-1.48,6.85-2.4,11.41-4.66a39.31,39.31,0,0,0,19.27-23.25,40.24,40.24,0,0,0,1.81-11.76c0-3.42,0-6.9,0-10.41,0-7,0-14.15,0-21.25,0-14.19,0-28.19-.07-40.54l1.15-20.85,1.08-23.76C511.91,297.89,512,318.65,512,340.48ZM.19,209.33,0,203.87c0-16.39,0-33,0-49.11,0-15.44.07-31,.11-46.64a49.46,49.46,0,0,1,12.3-30.68A46.52,46.52,0,0,1,25.35,67.16a38,38,0,0,1,3.71-1.79l1.88-.79,1.31-.5,5.24-2,82.49-31c50.45-18.67,68.63-24.4,28.61-8.48L121.89,32.95,45.23,61.84l8.43-3.72-8.57,3.37-8.8,3.22-4.4,1.61A49.45,49.45,0,0,0,26,69,46.2,46.2,0,0,0,7.29,87.65a48.08,48.08,0,0,0-4.74,12.73,49.92,49.92,0,0,0-1,6.78l-.14,3.34,0,2.41-.24,19.28Zm156.5-76.52a17.14,17.14,0,0,1,2,.56l15,4.95c1.28.69,2.6,1.49,4.65,2.47.94.45,3.29,1.27,5,1.93,0-.16.7-.13,0-.53-2.24-1.31-1.52-1.26,3.45.62,6.47,2.45,13.47,4.75,19.23,7.5,1.15.55,2.46,1.27,2.18,1.3a54.2,54.2,0,0,1-5.84.29c-.93,0-3-.68-6.68-2.15-8.86-3.51-17.87-7-26.85-10.44C160.7,136.24,153.23,132.33,156.68,132.81ZM95.79,116.66c-.84-.71-1.86-1.47-2.93-2.3,5.15,2,11.67,4,17.83,6.93a57.81,57.81,0,0,0,5.59,2,53.32,53.32,0,0,0,6.26,1.3,26.08,26.08,0,0,1,6.61,2.08c3.83,1.6,9.61,3.54,10.35,4.64.36.54,4.14,2.31,6.12,3.45.64.37,1,.68.59.68-.77,0-2.08-.22-2.69-.29-7.32-2.58-14.07-5-20.58-7.24-4.35-1.5-8-2.56-13.21-4.73-3.61-1.49-8-3-11.44-4.3C97.45,118.12,96.7,117.42,95.79,116.66ZM237.08,164l-20.75-10,.82.11c2.28.87,4.6,1.72,6.82,2.6,8.41,3.33,17.25,6.42,25.26,10,7.52,3.39,9.87,5.46,3.5,3.73-1-.28-2.87-.87-4.15-1.38-3.8-1.5-7.5-3-11.62-4.69l1.48,0Zm13.11,103.3a139,139,0,0,1-.39-15.81c.13-9.47-.1-23.37.64-25.81.36-1.19.67-10.67,1-15.8.11-1.66.28-2.56.41-1.79.27,1.66.52,4.63.67,6,.19,17.72.37,34.08.54,49.81.14,10.5.43,19.09.27,32,0,8.91,0,19.51,0,27.89l-1.15,7.07L251.15,339c0-12.6-.4-28.17.14-43.66.08-2.33,0-11.11-.11-13.55C250.89,275.79,250.55,270.63,250.19,267.32Zm-74.69,32c.08-.21.57-.32.15-.67-1.11-.94-3.65-1.66-5.46-2.3a12.69,12.69,0,0,1-3.16-1.42,10.26,10.26,0,0,0-2.63-1.29c-.58-.22-1.16-.48-1.74-.72l0-.11,5.34,1.84c-1.12-.52-2.2-.93-3.28-1.34-2.63-1-5.3-2-7.87-3-2-.83-4.51-2.36-3.14-2.32,1,0,2.45.26,3.76.44a12,12,0,0,1,1.13.42l-.24.19,2.61.7-1.45-.76c0-.21,0-.39.06-.52.25-.35-.2-1,1.75-.62a12.43,12.43,0,0,0,2.26.41c.33-.11.71,0,1.62.36a11.94,11.94,0,0,0,2.39.65c.44,0,.17-.36.22-.63l.72.17-3.09-1.23-.34.19c-1.38-.61-2.6-1.2-3.88-1.7s-2.63-.92-4.19-1.45l.67,0-1.86-.81a2.46,2.46,0,0,0-.5-.86,5.64,5.64,0,0,0-1.35-.74c-2.82-.89-5.27-2.15-7.94-3.15-.65-.24-1.38-.54-2-.71-3-.85-6.2-2.1-9.28-3.1-3.86-1.25-7.72-2.54-11.37-3.56-1.38-.39-3.33-1.07-3.15-.46.1.33-.4.16-2.1-.57-.41-.18-.88-.33-1.33-.5-3.35-1.27-6.7-2.54-10-3.83-.5-.19-.95-.47-1.42-.7h.24l-10-3.61c.21.53-.77.39-2.15-.1a10.09,10.09,0,0,1-1.39.88c-.74.33.3,1,3.2,1.93,1.82.61,3.67,1.29,5.51,1.94,1.18.42,2.5.95,3.51,1.23,3,.82,6.06,1.71,9.39,2.92.72.26,1.46.48,2.16.69l3.38,1c-.5.46.1.86,2.41,1.71,1.17.43,2.35.83,3.5,1.27q5.65,2.2,11.29,4.42s0,.06,0,.1c-.19-.06-.39-.1-.59-.17q-7.13-2.6-14.26-5.21c-.37-.13-.71-.4-1.1-.55-1.13-.45-2.29-.87-3.43-1.31,0,.19-.08.32.18.57.67.64,1.49,1.33,2.31,2-1.88-.35-1.86-.35-2.94-1.17a6.12,6.12,0,0,0-.95-.47,25.24,25.24,0,0,0-6.1-1.66,3.22,3.22,0,0,1-1.07-.14c-1.69-.61-3.38-1.25-5.06-1.91-3-1.18-5.5-1.52-4.91-.65.41.6-1.7.72-3.27.18-3-1-3.78-.9-4.1-.6-.12.11.19.42-.17.4-1.57-.11-.9.51.53,1.33l-1.4-.14c.69.37,1.3.75,2.08,1.1s2.06.72,2.52,1a54.68,54.68,0,0,0,7.33,3.17c1.62.63,3.32,1.16,5.16,1.79-.39.48-2.54.4,2.17,2.31l-.68.44c1.64.75,3.42,1.45,4.45,2a20.51,20.51,0,0,0,4.56,1.9,4.19,4.19,0,0,0,1.66,0l-.09-.2c1.39.62,3.17,1.32,4.08,1.86a38.21,38.21,0,0,0,8.92,3.64c.49.13,1.16.38,1.74.6,3,1.15,6,2.34,9,3.45,2.61,1,5.22,1.8,7.83,2.76,2.2.81,4.55,1.7,6.56,2.61a83.23,83.23,0,0,0,9.55,3.72,5.94,5.94,0,0,1,.93.37c1.85,1.15,2.64.83,3.93,1.23a1.06,1.06,0,0,0,1-.17c.16-.1-.18-.41.06-.47.6-.14,2.21.07,2-.34s.65-.33,1.51-.25L174.15,302c2.53.69,1.3-.57,4.34.41l-1-.49,3-.68Zm-35.81-18.15c.92.23,1.81.41,2.79.7.4.12,1,.44,2.13.94l-1.72-.52,0,.06,2.26.82A20.19,20.19,0,0,1,139.69,281.19Zm29,19.22c-.41-.19-.82-.4-1.24-.56-.71-.27-1.42-.49-2.13-.74-1.19-.43-2.41-.85-3.56-1.32a4.17,4.17,0,0,1-.94-.68l.43,0,7.66,3.18ZM145,271.16a3.39,3.39,0,0,1,.78.15l5.78,1.63a18.92,18.92,0,0,0,1.68,1.17,20.3,20.3,0,0,0,1.89.74c0-.12.31-.18.08-.38-.8-.65-.5-.7,1.39,0a50.13,50.13,0,0,1,7.27,2.9c.42.25.89.59.77.65a18.22,18.22,0,0,1-2.51.93c-.39.12-1.18-.11-2.58-.69-3.34-1.37-6.75-2.74-10.15-4C146.32,273.08,143.61,271.25,145,271.16Zm-23.9-3.83c-.28-.39-.62-.81-1-1.26a45.52,45.52,0,0,1,6.74,2.68,11,11,0,0,0,2.13.72,11.32,11.32,0,0,0,2.5.14,5.15,5.15,0,0,1,2.56.65c1.44.65,3.65,1.31,3.84,2,.09.33,1.48,1.12,2.19,1.68.23.18.32.36.17.4a6.63,6.63,0,0,1-1.11.13c-2.8-.91-5.38-1.78-7.87-2.55a38.06,38.06,0,0,1-5-1.69c-1.35-.6-3-1.13-4.34-1.61C121.65,268.16,121.42,267.75,121.12,267.33Zm59.14,16.26c2.79,1.45,3.54,2.63,1,2.2a9.11,9.11,0,0,1-1.6-.46c-1.43-.59-2.82-1.2-4.37-1.87l.62-.15-.53-.12-7.62-4.5.33,0c.86.33,1.75.64,2.59,1C173.9,281,177.29,282,180.26,283.59Zm-16.18,68.7c.08-.21.46-.37.17-.67-.75-.8-2.59-1.26-3.88-1.7a6.57,6.57,0,0,1-2.24-1.07,5.3,5.3,0,0,0-1.86-1c-.42-.16-.82-.35-1.23-.53l0-.11,3.83,1.26c-.79-.39-1.56-.68-2.34-1-1.88-.72-3.79-1.42-5.62-2.18-1.45-.61-3.16-1.85-2.14-1.94a23,23,0,0,1,2.77.06,6.18,6.18,0,0,1,.81.3l-.19.21,1.89.42-1-.59a1.52,1.52,0,0,1,.09-.5c.22-.36-.06-.95,1.36-.77a6.72,6.72,0,0,0,1.65.18c.26-.14.53,0,1.18.19a6.16,6.16,0,0,0,1.73.4c.33-.05.16-.37.22-.62l.52.09-2.2-.89-.27.22c-1-.46-1.84-.91-2.75-1.27s-1.89-.63-3-1l.5,0-1.32-.61a2.06,2.06,0,0,0-.3-.78,3,3,0,0,0-.95-.58c-2-.59-3.75-1.57-5.66-2.28-.47-.17-1-.39-1.4-.5-2.16-.54-4.45-1.43-6.67-2.11-2.78-.84-5.55-1.72-8.19-2.35-1-.24-2.39-.71-2.31-.14,0,.31-.31.19-1.52-.35-.29-.13-.63-.24-.95-.36-2.39-.91-4.78-1.81-7.17-2.74a8.55,8.55,0,0,1-1-.54h.18l-7.14-2.53c.11.49-.61.45-1.6.11a10.45,10.45,0,0,1-1.12,1c-.58.39.14.89,2.22,1.56,1.31.42,2.63.89,3.95,1.34.85.29,1.78.68,2.52.85a57.74,57.74,0,0,1,6.77,1.92c.52.18,1,.33,1.55.46.75.2,1.49.38,2.44.62-.42.5,0,.82,1.65,1.42.83.31,1.68.57,2.51.9q4,1.58,8.05,3.19s0,.06,0,.1a4.12,4.12,0,0,1-.43-.11L126,333.59c-.26-.1-.49-.32-.77-.43-.81-.32-1.63-.62-2.45-.93,0,.18-.09.32.08.53.44.56,1,1.14,1.54,1.75-1.38-.16-1.36-.16-2.1-.85a3.2,3.2,0,0,0-.67-.37,13.08,13.08,0,0,0-4.41-1,1.79,1.79,0,0,1-.79,0c-1.21-.43-2.42-.88-3.62-1.36-2.16-.85-4-.94-3.62-.16.25.54-1.34.86-2.46.49-2.16-.72-2.75-.5-3-.19-.1.12.1.39-.16.4-1.16,0-.72.58.28,1.24h-1a16.84,16.84,0,0,0,1.46.87c.55.26,1.48.5,1.8.72a27.85,27.85,0,0,0,5.2,2.36c1.16.46,2.38.8,3.7,1.24-.34.5-1.94.63,1.41,2l-.55.49A34.27,34.27,0,0,1,119,341.9a10.52,10.52,0,0,0,3.24,1.4,2.49,2.49,0,0,0,1.24-.13l0-.18a27.33,27.33,0,0,1,2.89,1.41,19.61,19.61,0,0,0,6.35,2.67,9.4,9.4,0,0,1,1.25.41c2.15.82,4.29,1.68,6.44,2.47,1.87.68,3.75,1.24,5.61,1.92,1.58.57,3.25,1.21,4.67,1.89a42.48,42.48,0,0,0,6.82,2.68,3.07,3.07,0,0,1,.66.27c1.28.93,1.9.55,2.83.81a.78.78,0,0,0,.77-.26c.13-.11-.1-.38.09-.46.47-.19,1.65-.14,1.49-.52s.52-.38,1.15-.39l-1.61-.89c1.83.42,1-.68,3.21,0l-.68-.38,2.29-.95Zm-25.17-14.1c.67.13,1.32.23,2,.41a14.27,14.27,0,0,1,1.51.7L141.2,339l0,.05,1.62.58A10.34,10.34,0,0,1,138.9,338.19ZM158.85,354c-.29-.14-.58-.31-.88-.42-.51-.19-1-.33-1.53-.51-.85-.3-1.73-.59-2.55-.93-.28-.12-.43-.38-.64-.57l.32,0,5.45,2.34ZM151,330.59c0-.12.25-.21.09-.37-.54-.55-.31-.63,1-.12a25.6,25.6,0,0,1,5.18,2.11c.3.2.62.48.52.55a15.26,15.26,0,0,1-2,1.14c-.3.15-.87,0-1.87-.41-2.38-1-4.8-2-7.24-2.92-2.21-.83-4.07-2.34-3-2.56a1.78,1.78,0,0,1,.57.07l4.18,1a10.58,10.58,0,0,0,1.15,1A10.29,10.29,0,0,0,151,330.59Zm-24.3-2.87c-.16-.39-.3-.75-.49-1.13s-.39-.72-.61-1.13a23.2,23.2,0,0,1,4.81,1.94,5.72,5.72,0,0,0,1.53.49,6.6,6.6,0,0,0,1.86-.11,2.73,2.73,0,0,1,1.86.38c1,.49,2.62.91,2.7,1.55,0,.31,1,.94,1.49,1.41.15.15.21.32.09.37a4.45,4.45,0,0,1-.84.23c-2-.61-3.86-1.2-5.66-1.71a19.59,19.59,0,0,1-3.62-1.15C128.88,328.41,127.67,328.06,126.73,327.72Zm42.9,10.94a4.65,4.65,0,0,1-1.15-.29c-1-.43-2-.89-3.11-1.38l.48-.21-.38-.06-5.3-3.62.25-.06c.62.24,1.25.45,1.85.71a59.63,59.63,0,0,1,6.78,2.89C171,337.77,171.46,338.83,169.63,338.66Z"/></svg>