<svg id="Layer_1" data-name="Layer 1" xmlns="http://www.w3.org/2000/svg" viewBox="0 0 512 512"><defs><style>.cls-1{fill:#707070;}</style></defs><title>shield-dollar-handdrawn</title><path class="cls-1" d="M301.48,494.66c11-6.79,21.51-14.13,31.75-21.53,25.41-18.86,49.24-40.07,69.87-63.55S441,360.31,453,333.22c2.65-5,4.44-11,6.67-16.63A116.09,116.09,0,0,0,465,300.33c2.54-9.82,4.08-16.21,3-13.44-.66,1.48-.21.29.83-4.85l1.76-10.88c.62-4.72,2.18-10.49,2.29-17.71.34-7,1-14.74,1-22.08V106.59c0-3.39.14-7.06-.55-10.66a38.66,38.66,0,0,0-3.3-10.36,35.91,35.91,0,0,0-14.79-15.66,34.52,34.52,0,0,0-12.21-4c-4.35-.5-8.14-.52-12.24-.9l3.47.12c-26.91-1.54-53.74-6.17-79.41-14.93S304.82,28,284.63,9.14c1.85,2.1.34.79-4.55-3A34.78,34.78,0,0,0,253.83.59a33.38,33.38,0,0,0-13.49,8.06c-1.54,1.58-1.82,2-.86,1.38a37,37,0,0,1,7.1-4.43,32.56,32.56,0,0,1,18-2.58,30.83,30.83,0,0,1,12.11,4.34c3.82,2.52,7.77,6.56,12.33,10.43,23.06,19.34,51.58,32.67,80.82,40.57a299.28,299.28,0,0,0,57,9.66c6,.6,12.32.33,18,1.23a31.05,31.05,0,0,1,15.54,7.82,34.2,34.2,0,0,1,9.39,15c1.88,5.77,1.53,12,1.61,18.3.09,25.15.18,51.13.28,78.61.05,11.9.11,23.76.16,35.1.24,8.45-.21,16.74-.66,25.58,0,8.89-1.84,18.12-3.42,28.6-.38-5.14-.12,6.25-13.45,41.83l-2.55,6.74-3.12,6.49-6.28,13c-2.24,4.24-4.82,8.29-7.21,12.44a139.4,139.4,0,0,1-7.62,12.15c-17.41,25.93-38.67,49.11-62,69.84a484.28,484.28,0,0,1-75.61,54.91,5.39,5.39,0,0,1-.87.35c2.66-1.44,5.31-3.15,8.1-4.9a532.78,532.78,0,0,0,48-33.61,483.77,483.77,0,0,0,43.43-39.3c3.37-3.53,6.58-7.22,9.87-10.82s6.54-7.25,9.51-11.12l9.15-11.43,8.38-12,4.18-6,3.74-6.28L440.81,348c2.24-4.33,4.28-8.76,6.44-13.13a110.24,110.24,0,0,0,5.9-13.36c2.06-5.64,4.67-11.39,6.67-17.55,5.21-18,9.49-36.57,10.19-55.43a20.5,20.5,0,0,0-.92,5.41l-.45,4.94-1,5.09-2.11,10.65c-1.1,7.34-3.65,14.66-5.87,22,1.68-7,3.36-12.16,4-16.46l1.63-10.48c1-5.91,2.17-10.65,2.69-20.54.2-2.86.75-10.25,1-16.09.1-30.16-.36-83.61-.82-97.6-.13-3.85-.32-10.26-.33-16.3V108.67c0-3.49.07-7.07-.23-10a31.12,31.12,0,0,0-7.09-16.65,28.32,28.32,0,0,0-15.13-9.45c-2.87-.74-5.9-.72-9.63-1-3.53-.15-7.05-.46-10.57-.72-51-4-87.23-20-74.9-14.08,4.26,1.87-.94.43-10.32-2.76A194.08,194.08,0,0,1,306,37.6c-5.38-3.52-10.24-6.67-14.33-10a133.57,133.57,0,0,1-10.89-8.93L276.45,15a20.1,20.1,0,0,0-2.88-2.15,21.61,21.61,0,0,0-5.42-2.41c-6.73-1.74-9.44-.59-10.48-.42-.81.22,3.62.21-.25.62A20.55,20.55,0,0,0,250,13.14c-.94.68-.76.69.31.27a24.82,24.82,0,0,1,17-.4,22.37,22.37,0,0,0-13.92.37,21.92,21.92,0,0,1,11.46-.31,19.24,19.24,0,0,1,5.32,2,20,20,0,0,1,2.39,1.55l2.72,2.4,8.75,7.79,10.09,7.72c6.88,4.72,13.34,8.84,17.14,10.93,33.44,20.35,79.86,31.75,123.24,34l5.23.27a24.44,24.44,0,0,1,3.09.41,18.37,18.37,0,0,1,5.86,2.18A21.84,21.84,0,0,1,457.61,92a22.67,22.67,0,0,1,2.05,6.66,27.8,27.8,0,0,1,.32,3.57l0,5.34q0,10.85.07,22.13c-.78-3.23-1.71-35-1.86,43.64l-.88-7.61c-.06,13.93-.13,28.29-.18,41.44,0,6.57-.07,12.84-.1,18.61,0,2.88,0,5.63-.07,8.23l-.46,6.84c-.47,23.91-6.25,47.9-14.05,69.57-2.07,5.43-3.17,9.17-4.44,12.28l-4,9.11,1.15-1.9c-4.56,10.11-11.19,20.88-17.38,30.84l-9.65,13.65c-3,4.23-6.15,7.67-8.53,10.68a392.72,392.72,0,0,1-47.75,48.47,516.81,516.81,0,0,1-60.94,45l-5.26,3.31a49.36,49.36,0,0,1-5,2.73A47.36,47.36,0,0,1,270,488.23a47.88,47.88,0,0,1-27.88-2.58,51.88,51.88,0,0,1-6.4-3.17l-7.64-4.72c-5.19-3.12-10.14-6.6-15.22-9.89A458.6,458.6,0,0,1,156.25,423a398.54,398.54,0,0,1-41.56-45.56c-12-16.45-23.15-33.59-31.4-52.15-2.06-3.79-3.32-7.92-4.92-11.94l-4.63-12.2-3.42-12.62c-1.09-4.22-2.52-8.36-3-12.68L65.26,263c-.3-2.12-.8-4.2-.93-6.32L64,250.4c-.39-8.43-1-16.4-.79-25.14.09-26.77.18-53,.27-79.25,0-13.13,0-26.27,0-39.5,0-1.52,0-3.62,0-4.66a18.83,18.83,0,0,1,.25-2.9,20.08,20.08,0,0,1,8.81-13.88,16.64,16.64,0,0,1,7.73-2.42,285.9,285.9,0,0,0,37.51-3.43c9.5-1.67,17.42-3.21,28.11-5.91a94.47,94.47,0,0,0,13.77-4.39c1.76-.69-5,.95-1.77-.15,4-1.45,12.12-4.13,18.31-6.84,6.26-2.49,10.63-4.78,7.73-3.71-7.49,2.51,7.44-3.51,19.33-10.21A239.68,239.68,0,0,1,165.2,63.64c19.95-7,23.42-9.64,28.19-12,4.49-2.94,10.92-4.84,32.22-19.81-7,4.88-14.93,9.72-14.65,9.43a193.6,193.6,0,0,0,31.89-26.88A182.55,182.55,0,0,1,204.9,42.14,231.71,231.71,0,0,1,169.53,58c-.1-.3,6.17-3-1.54-.43a355.84,355.84,0,0,1-42.17,10.45c-8.31,1.39-16.9,2.74-25.33,3.53-4.21.49-8.38.74-12.43,1.07s-8.28.36-11,.78a27.9,27.9,0,0,0-20.22,15.5c-3.43,7-3.19,12.77-3.31,18.64-.31,11.89-.36,26-.35,45.13,0,9.66-.05,19.37-.08,29.07l-.16.06-.12-43.75-.06-21.88,0-10.94c0-1.65,0-3.1.06-4.48,0,.24-.08.48-.09.72-.09,2.12,0,4.61-.07,6.88q0,6.95,0,13.77c0,9.1,0,18.07,0,27,0,21.81,0,43.72,0,65.57,0,10.94-.11,21.87.7,32.42.08,10.7,2.2,21.14,3.85,31.57,1.46,8.23,4.29,16.78,6.25,25L71,325.08c5.08,11.45,7.48,16.86,2.8,8C70,326.62,67,317.95,63.24,308.9c-2.06-4.47-3-9.46-4.6-14.29-1.3-4.9-3.15-9.7-4-14.62l-3-18.3L52.4,264l-.86-5.08-.31-5c-.21-3.27-.41-6.48-.62-9.75s-.41-6.62-.63-10.14c0-3.56-.07-7.31-.1-11.37-.4,15,.56,23.17.48,25.07-.23.82-.34,2.47-.57,1.83-.49-1.87-1.09,8.16-2.44-22.16-.18-12.33-.34-31.91-.56-35-.3-4.28-.29-10.62-.32-25.46,0-13.83-.15-33.21-.33-38.22-.22-6.32-.53-.6-.88.07,0,2.81,0-1.37-.14-11.39,0,22.14,0,36.86-.07,51.41l.4,4c0,23.39-.48,44.15-.06,65.49.66,10.8.73,21.77,3.13,33,1.38,11.41,5,22.88,8.4,35.37L54,297l2.33,8.69c.78,2.77,1.91,5.3,2.79,7.79l5.11,13.63a88.9,88.9,0,0,0,4.32,11.15l4.64,10c2.12,4.32,4.9,8.63,6.38,11.25,5.67,10.18,12.56,19.27,18.93,28.53,7.06,8.73,13.73,17.62,21.33,25.62A400.66,400.66,0,0,0,168,459.07c8.48,6.84,18.2,14.24,25.92,19.49,9.88,7,20.43,13.62,31.22,20.2a67.94,67.94,0,0,0,38.81,9.64,65.81,65.81,0,0,0,20-4.29C290.32,501.75,296.15,498,301.48,494.66ZM59.59,111.53c0,19.6,0,39.58,0,58.81,0,6.65-.26,11.57-.41,17.28-.06-2.13-.12-4.28-.17-6.4L59.22,117l.1-15.65a24.91,24.91,0,0,1,2.8-10.67A22,22,0,0,1,78.8,78.81a12.9,12.9,0,0,0-1.66.51A20.83,20.83,0,0,0,65.5,86.12a23.51,23.51,0,0,0-5.28,10.51,26.94,26.94,0,0,0-.65,6.13ZM220.37,489.74c-6.24-3.73-12.42-7.84-19-12.21-5.32-3.68-14.13-9.84-28.68-21.51,13,10.06,17.59,13.37,22.25,16.57l-.67-.54c-9.52-6.79-18.84-13.86-29.42-22.72,14,11.68,29,22.25,42.15,31.19,6.61,4.44,12.8,8.4,18.28,11.77a74.06,74.06,0,0,0,14.15,7.34C232.59,497.32,226.6,493.53,220.37,489.74ZM52.81,100.79a30.58,30.58,0,0,1,.69-5.43A34.8,34.8,0,0,0,52.81,100.79Zm91.91,348.46c39,35.33,82.56,60.86,64.45,51-1.76-1-6.34-4-10.47-6.66a481.18,481.18,0,0,1-74.33-59.95c-3.08-3.11-6.15-6.4-9.44-10.33s-7.22-8.11-11.55-13.45c-3.87-5-13.7-16.62-19.83-26.08-.11.14-2.48-2.9.1,1,4.31,6.54,5.82,9,3.9,6.43L82,383.49l-4.82-6.86c-1.8-2.67-3.58-5.89-5.71-9.4-11.42-18.07-20.25-38.66-27.21-59.34-2.76-10.59-6.23-20.91-7.45-31.48l-2.42-15.5-.69-15.18c-.13-4-.28-8.25-.38-11.35.07-2.92.16-4.7.23-4,.27,4.31,1.15,9.82,1.79,15.37.83,5.61,1.12,11.63,2.47,17.75,1.53,5.19,2.31,18.59,9.46,42.24C56,333.85,69.6,360.35,86.42,384.32S123.18,429.93,144.72,449.25Zm334.57-191c-.94,8.34-2.64,17.1-4,26.25l-3.61,13.68c-1.38,4.59-2.21,9.45-4.16,14-3.57,9.18-6.69,18.83-11.53,27.8-2.3,4.54-4.38,9.23-6.92,13.67l-8,13.14c-1.46,2.73-5.56,8.81-9.83,14.82l-6,8.69-4.57,5.86c-9.36,12.69-18.55,22.72-24.16,29.43a337.56,337.56,0,0,1-30,28.79c-18.77,16.41-48.76,37.18-54.67,39.82l-14.53,8.47a72.22,72.22,0,0,1-25.66,8.88c-4.78.63-7.41.53-5.2.24a78.64,78.64,0,0,0,16.73-4.28,76.53,76.53,0,0,0,16.43-8.26c4.81-3,9.59-6,14.19-9.1s9.23-6.14,13.65-9.37,8.9-6.3,13.14-9.64a428.32,428.32,0,0,0,47.49-41.37l7.12-7.15,6.55-7.32c4.35-4.83,8.68-9.59,12.7-14.9a328.93,328.93,0,0,0,25.68-36.14c2.92-5.07,6.34-10.17,9.13-15.77l8.28-17.07c4.6-11.81,9.46-23.39,11.92-34.2,1.89-6,4.31-11.27,5.51-17.91C476.21,273.16,478.05,266,479.29,258.25ZM33.9,113.52l-1,67.3-.19-4.76c0-14.3,0-28.81,0-42.84q0-10,0-20v-10a54.42,54.42,0,0,1,1.65-13.8A50.73,50.73,0,0,1,49,64.75,47.84,47.84,0,0,1,75.56,52.38l3.72-.33,2.46-.13,4.78-.24L96,51c6.33-.59,12.62-1.32,18.83-2.26A289.82,289.82,0,0,0,151.08,41c21.88-6.32,35.48-13.23,40.24-15.11,4.59-2.21.77,1.15-15.78,8.74A209.9,209.9,0,0,1,152.73,43,295.61,295.61,0,0,1,83.39,54.36c3.72-.39,5.8-.7,7.88-1-2.63.25-5.27.47-7.91.61l-4.15.16a47.3,47.3,0,0,0-5.94.64A45.81,45.81,0,0,0,61.84,58.3,47.58,47.58,0,0,0,43.73,73.21a49.2,49.2,0,0,0-9,21.39C33.62,103.23,34.16,107.68,33.9,113.52Zm206.66,19.66a106.9,106.9,0,0,0-36.93,12.1c-5.52,3.11-7,4.73-10.33,7l1.12-.45c-10.13,6.34-21.13,16.72-26.51,22.9a117.89,117.89,0,0,0-19.41,30.34,116.68,116.68,0,0,0-9,38.76,119,119,0,0,0-.09,14.54A114.27,114.27,0,0,0,147,295.57a119.38,119.38,0,0,0,18.81,32.94A121,121,0,0,0,218.59,366a124.21,124.21,0,0,0,54.67,6.9,118.39,118.39,0,0,0,71.82-34c1.72-1.66,4.39-4.75,5.42-5.77,11.3-12.5,13.06-17.57,17.85-27a27.5,27.5,0,0,0,2.38-6.57c.2-.89-1.44,2-.91.47,1.21-3.93,4.72-15.64,3.34-13-1.45,3.44.32-4,1.56-10.2a126.23,126.23,0,0,1-5.95,18.41c3.42-9.37,3.22-11.46,3.6-13.93.16-1.25.35-2.62.86-5.15L374.79,264l-1.31,7.95c.47-6.58,0-12.55-.54-19.25A110.48,110.48,0,0,1,366,291.29c-.28-.11.45-3.18-1.07.25a89.59,89.59,0,0,1-3.74,8.14,93.62,93.62,0,0,1-5.23,9.73,83.26,83.26,0,0,1-6.51,9.84L346,323.87l-3.63,4.05c-3.71,4.44-7.69,7.52-10.75,10.38-3.3,2.58-6.12,4.48-8.24,5.91a176.6,176.6,0,0,1-18.59,10,135.41,135.41,0,0,1-12.75,4.63l-.07-.14a110.61,110.61,0,0,0,30.1-14.7c-1.62,1.1-3.26,2.15-4.95,3.09a90.3,90.3,0,0,1-11.1,5.87,105.08,105.08,0,0,1-29.1,8.67,107.82,107.82,0,0,1-30.15.46c-16-1.63-34.44-10.71-25.51-7.8a95.23,95.23,0,0,0,11.82,3.09,96.5,96.5,0,0,0,13.68,2,81.82,81.82,0,0,0,8.43.67l-1.12.3c6.44.37,11.57-.09,18.86-.89-6.76.55-10.53.4-11.38.5-.37-.26-1.11-.42-.81-.63.83-.6-3.55-1,9.82-2.1l9.13-1.63a37,37,0,0,0,6-1.68c1.73-.84,4.52-1.18,10.58-3.6l4.56-1.72,4.44-2.22a40.84,40.84,0,0,0,6-3.36c2.25-1.63,0-.6-.46-.75l4.15-2.68L309.33,343l-5.16,2.48a64.84,64.84,0,0,1-9.14,3.77l-1.49,1a101.44,101.44,0,0,1-27.84,5.06,100.06,100.06,0,0,1-26.11-1.83c.26,0,.52.06.79.08-5.16-1.31-9.58-2.25-13.08-3.66a37.86,37.86,0,0,0-4.48-2.52c-1.4-.42-6.77-3.37-9.08-4.41a99.26,99.26,0,0,1-40.56-38.34c-2.6-3.83-4.49-8.67-6.36-12.16a101.13,101.13,0,0,1-5.76-63.56c5.84-26.46,23.25-49.81,44.62-63.49a111.71,111.71,0,0,1,13.13-7.31c3.94-1.85,6.62-2.83,5.28-2.76-1.36.35,1.75-1.69,14-4.46,3-.66,6.33-1,9.5-1.56,24.13-2.79,49.36,2.64,69.63,16.24,3,1.94,5.69,4.32,8.53,6.46l-1.29-.83A104.73,104.73,0,0,1,362,230.94c0-2.61,1.9,3.73,2.8,13.78.76,2.43,1.41,4,2.12,6.94.48,2,.69,1,.63-3.27a85.75,85.75,0,0,0-3.09-22.16A107.74,107.74,0,0,0,347,189.47c-5-7.27-12.2-14.2-17.79-19a108.88,108.88,0,0,0-62.9-24,100.85,100.85,0,0,0-15.71.34c-3.76.37-7.41,1.17-11.32,1.78-3.82,1-7.93,2-12.38,3.55.9-.77.2-.78-2.75.14-1.47.49-3.54,1.09-6.17,2.17-2.55,1.24-5.8,2.65-9.57,4.68-3.65,2.34-7.56,4.32-10.91,7.09l-5.19,3.91-4.8,4.36a106.64,106.64,0,0,0-34.17,74.89,1.3,1.3,0,0,1-.14.42l.15-4.31c1.8-35.51,23.14-69,54.15-86.45,2.31-1.49,5.07-2.37,7.7-3.71,3.77-2,7.93-3.16,11.92-4.73,4.09-1.27,8.27-2.31,12.44-3.24-.78-.06-.34-.48-2.56-.08-2.92.52-6.18,1-9.54,1.76l-10.19,3c12.44-5.27,12.52-4.84,21.58-6.58l7.45-1c3.41-.69,7.58-.54,11.91-.9,4.35-.21,8.92.23,13.27.3,4.3.61,8.42,1,11.8,1.62l7.66,1.62a41.43,41.43,0,0,1,7.27,2.09,109.52,109.52,0,0,1,33.46,19.46c17.83,15.29,26.09,31.58,23.84,25.62-.87-2,.78-.09,3.46,3.65,2.36,3.89,5.87,9.66,7.8,15.53A125.44,125.44,0,0,1,372.94,236c.93,4.33,1.34,5.93,1.59,6.65.22.54.31-2.43.59.16.6,5.66.92,7,1.07,5.26a59.79,59.79,0,0,0-.55-12.51l1,5.34.5,5c0-5.91-.89-11.29-1.89-17.74-.78-3.16-1.78-7.24-2.88-11l-3.22-8.94C363,191.09,349.59,172.34,333,159.6a113.46,113.46,0,0,0-37.06-19.42c.87-.1,5.13,1,4.55.41-.61-.33-5.83-3.88-25.52-6.81l3.94-.29C264.88,131.1,249.69,131.57,240.56,133.18ZM294,364.44c20.11-6.16,38.78-17.5,52.88-33.22l-.73,1.13a80.61,80.61,0,0,1-7.45,7.21c-4.14,4-8.84,7.31-13.5,10.75-8.17,5.15-16.85,10.07-26,12.94A40.51,40.51,0,0,1,291,365.4ZM161.17,292.17a50.87,50.87,0,0,0,2.39,5.51,75.36,75.36,0,0,0,4.59,9c-3.93-6.29-4.62-8.82-5.89-11l.12.37,3.51,7.24c1.36,2.4,2.92,4.82,4.53,7.49-9.52-13.55-14.27-30-15.34-37.59A120.31,120.31,0,0,0,161.17,292.17ZM322.08,344c1.94-1.31,3.85-2.69,5.77-4.13C326,341.31,324,342.63,322.08,344ZM172.9,285.2c-2-6-1.91-8.95-.67-5.27l1.78,4.33a91.47,91.47,0,0,0,19.07,29.95,73,73,0,0,0,8,8.68,87.22,87.22,0,0,0,9.8,7.18c.08-.15,1.4.4,0-.6-4.54-3.55-3.28-2.56,7,3.4a97.62,97.62,0,0,0,44.57,10.54c2.86-.05,6.19,0,5.64.16-3.36.86-7.6,2.21-12.31,2.53a40.86,40.86,0,0,1-5.44,0c-2.62-.44-6.21-.72-10.73-1.77-21.68-4.7-41.49-18-54.73-35.91C178.82,300.38,174.58,291.31,172.9,285.2Zm-8.85-43.38c-.49,1.17-1.66,11.16-1.4,16.62,0,1.76-.16,2.74-.33,1.93-.36-1.74-.78-4.91-1-6.4,0-9.48.72-18.71,3.22-27.25.85-4.38,2.73-8.38,4-12.5,1.92-3.86,3.37-7.93,5.67-11.5,5.6-9.79,11.18-17.52,21.91-26.52a115.47,115.47,0,0,1,25.63-15.67l7.55-1.5c2.45-.6,5.49-.75,8.54-1.21-13,3-28.1,10.15-40.86,20.45L191.72,183c-2.08,2.1-4,4.41-4.81,5.38a58.22,58.22,0,0,0-5,7.06,32.22,32.22,0,0,0-3.24,5.68c-.71,1.51-1.65,3.31-3,5.61L171.36,216l-2.8,7.5c-.82,2.66-1.43,5.41-2.13,7.89C165.21,236.36,164.73,240.61,164.05,241.82ZM330.8,313.11a19.11,19.11,0,0,0,1.69-2.79,19,19,0,0,1-2,2.54,95,95,0,0,1-20.2,16.46,97,97,0,0,1-23.71,10,12.79,12.79,0,0,0,1.66-.76c2.54-1,5.15-1.83,7.66-2.87l7.32-3.51c17.9-9.63,32.36-26.14,40.53-44,3.69-8.47,5.31-14.56,6.3-16.51s.86.11-.72,7.54c-.52,2.38-2.15,6.56-3.18,9.56A98.73,98.73,0,0,1,330.8,313.11ZM272.45,293.7l-4.92.77c0,.41,0,.81.07,1.22.23,4.25.33,8.28-.84,11.81.47.71-.13,1.38-.86,2.19l-.86,1-.57.77-1.57,3.67-.14-1.91-3.83,4.28,3.67-6.7,0-.64c0-.47-.27-2.83-.47-4.59h-.16v-.13l-2.17,8.14,0-9.09c0-1.41-.06-2.77-.12-4.18a2.34,2.34,0,0,1-.38,1.58,8,8,0,0,1-.67.75l.13.66.36-.5.3,3.81c0,.42,0,.82,0,1.22a4.88,4.88,0,0,1-.07.86c-.27,1.29-1,1.48-1.44,1.48a1.36,1.36,0,0,1-.87-.33l-.81,1.17.27-2.12a4.51,4.51,0,0,1-.17-.89,20.58,20.58,0,0,1-.11-2.58c0-.5,0-.89,0-1.28s0-.48,0-.72l.13-.86.18-.35a2,2,0,0,1-.16-.49,11.2,11.2,0,0,1-.09-2.31v-.25c0-.17,0-.33,0-.5a2.52,2.52,0,0,1,.25-1.32l-.14-.46.23-2.39a1.9,1.9,0,0,1,.17-.7l.26-.56a47.47,47.47,0,0,1-4.9-.81,36.93,36.93,0,0,1-18.31-10.77,44,44,0,0,1-4.5-5.52,38.81,38.81,0,0,1-3-5.41l-.2-.43.31-.16c-.42-1.16-.29-1.69.43-2.08,1.13-.59,1.78.49,2.4,1.61l.3.26a7.84,7.84,0,0,1,1.05,1.35c-1.23-2.13-2.18-4.28-1.74-5.16l.33-.66.76,0a1.22,1.22,0,0,1,.83.31l-.26-.74,4.88,7a31.41,31.41,0,0,0,18.39,13l.47.11,0,.08a24.39,24.39,0,0,0,2.42.5,40.35,40.35,0,0,0,11.77.14,26.48,26.48,0,0,0,10.9-3.53,16.23,16.23,0,0,0,2.37-1.74l.29-.27-.32.25-1.54-1.8.34-.32a13.29,13.29,0,0,0,3.33-4.89,10.92,10.92,0,0,0,.47-1.49l.17-.76c.07-.46.11-.71.16-.92l0-.21a20.18,20.18,0,0,0,.27-3.52,14.38,14.38,0,0,0-.68-3.73,9.59,9.59,0,0,0-2.11-3.31l-.53-.5a15.65,15.65,0,0,0-3-2.38,22.92,22.92,0,0,0-6.11-2.46,11.88,11.88,0,0,1-1.69-.55c-.23-.07-3.13-.66-5.32-1-.77-.12-1.91-.31-1.84-1.46V251a75.23,75.23,0,0,1-10.36-1.54,44.2,44.2,0,0,1-4.84-1.28,30.11,30.11,0,0,1-9.55-4.85,14.34,14.34,0,0,1-5.62-10.49,12.94,12.94,0,0,1,.53-4.38,8.44,8.44,0,0,1,.65-1.43l.21-.41a24.12,24.12,0,0,1,2.21-4.52l.24-.38.06,0a26.35,26.35,0,0,1,5.94-6.75,27.63,27.63,0,0,1,9.17-4.92l.67-.39c1-.28,2.15-.6,3.54-.86l-.17-1.83a31.37,31.37,0,0,0-6,1.47l-.44.16-.9-2.21,1.19-.55a33.24,33.24,0,0,1,6-1.57v-.12a11.25,11.25,0,0,1,.08-2.29,2.37,2.37,0,0,1,.2-.56l-.34-.84v-.33c0-.23,0-.47,0-.7,0-.39,0-.79,0-1.18a22,22,0,0,1,.1-2.66c0-.2.06-.45.12-.7l-.35-2.4.92,1.29a1.13,1.13,0,0,1,.92-.36c.43,0,1.18.3,1.42,1.46a4.36,4.36,0,0,1,.08.87c0,.42,0,.82,0,1.24l-.18,3.93-.45-.62-.12.68a9.39,9.39,0,0,1,.66.74,2.06,2.06,0,0,1,.38,1.31c.06-1.33.1-2.61.11-3.93l0-9.05,2.16,8.11v-.13h.16c.2-1.77.44-4.1.47-4.59l0-.6-3.53-6.47,3.7,4.06.14-2,1.67,3.89.71.84.38.3v.12l.23.25c.71.79,1.29,1.44.88,2.13a24.2,24.2,0,0,1,1,7.93,29.72,29.72,0,0,1,4.68.83,30.17,30.17,0,0,1,13,7.23,24.57,24.57,0,0,1,5.28,6.72c.36.9.24,1.53-.38,1.9-.94.56-1.44,0-2.44-1.22l-.36-.43-1.17-1.36a40.59,40.59,0,0,0-3-3,28.39,28.39,0,0,0-10.7-6.25l-.44-.14,0-.14a29.59,29.59,0,0,0-4.61-1.09l0,.68c-.07,1.33-.14,2.69-.15,4,1,.13,1.87.3,2.79.5,4,.88,9.32,4,11.3,6.77a2.12,2.12,0,0,1,.52,1,28.72,28.72,0,0,1,5.44,9l.16.42-2.12,1-.22-.39a25.9,25.9,0,0,0-1.39-2.2l-.4.2-.23-.41a25.75,25.75,0,0,0-1.48-2.41l-.48.33-.28-.37c-.44-.58-.86-1-1.09-1.3a3.73,3.73,0,0,1-1.46-1l-.82-.7h-.16L277,222a8.29,8.29,0,0,1-1.58-.94c-2-1.39-3-1.79-6.38-3.07a6.31,6.31,0,0,0-1.53-.34,27.61,27.61,0,0,0-9.26.17,22.06,22.06,0,0,0-8.25,3.33,17.6,17.6,0,0,0-7,9.11c-.92,3.3.27,5.15,4.71,7.36S258.32,241,267,241.83l4.54.51A31.48,31.48,0,0,1,285.2,247a22,22,0,0,1,9.08,11.46,22.93,22.93,0,0,1,1.19,5.11l.76-2.34-.51,6.83a24.49,24.49,0,0,1-.19,2.68l-.05.67c0,.31-.05.61-.08.87l0,.23V273a14.62,14.62,0,0,1-.62,3.11,23.7,23.7,0,0,1-9.26,12.41A33.49,33.49,0,0,1,272.45,293.7Zm-39.31-64.26a14.18,14.18,0,0,0,.71,7.89,15.56,15.56,0,0,0,4.74,6.27,27.75,27.75,0,0,0,6.21,3.62,83,83,0,0,0,11.12,3.47c2,.5,2.78.69,2.62,1.84s-1.24,1.08-1.6,1.08h-.35l-2-.29c-5-1-9.94-2.09-15.17-5.06a26.22,26.22,0,0,1-4.8-4,23.71,23.71,0,0,1-2.51-3.38,1.64,1.64,0,0,1-.86-.81l-.16-.3a15.48,15.48,0,0,1-1.7-6.08,22.75,22.75,0,0,1,3-12.59,29.18,29.18,0,0,1,7.1-8.67c1.56-1.4,2.66-2,3.33-1.75l.65.21.27,1.38-.54.48a36.45,36.45,0,0,0-3.41,4.15,9.64,9.64,0,0,1-.69.9,31.5,31.5,0,0,0-3.38,4.88A22.49,22.49,0,0,0,233.15,229.44Z"/></svg>